<?xml version="1.0" encoding="utf-8"?>
<!-- Generator: Adobe Illustrator 24.0.0, SVG Export Plug-In . SVG Version: 6.00 Build 0)  -->
<svg version="1.1" id="Layer_1" xmlns="http://www.w3.org/2000/svg" xmlns:xlink="http://www.w3.org/1999/xlink" x="0px" y="0px"
	 viewBox="0 0 425 194.2" style="enable-background:new 0 0 425 194.2;" xml:space="preserve">
<style type="text/css">
	.st0{fill:none;}
	.st1{font-family:'ArialMT';}
	.st2{font-size:15px;}
	.st3{fill:none;stroke:#000000;stroke-linecap:round;stroke-linejoin:round;stroke-miterlimit:10;}
	.st4{fill:#62B5D7;stroke:#000000;stroke-linecap:round;stroke-linejoin:round;stroke-miterlimit:10;}
	.st5{fill:#FFFFFF;stroke:#000000;stroke-linecap:round;stroke-linejoin:round;stroke-miterlimit:10;}
	.st6{fill:none;stroke:#000000;stroke-width:0.35;stroke-linecap:round;stroke-linejoin:round;stroke-miterlimit:10;}
	.st7{fill:#62B5D7;}
	.st8{fill:none;stroke:#000000;stroke-width:0.5;stroke-miterlimit:10;}
</style>
<g>
	<g>
		<rect x="47.2" y="28.2" class="st0" width="85.1" height="55.1"/>
		<text transform="matrix(1 0 0 1 77.5155 40.4424)" class="st1 st2">Placas </text>
		<text transform="matrix(1 0 0 1 64.3612 58.4424)" class="st1 st2">dorsales de </text>
		<text transform="matrix(1 0 0 1 48.2267 75.4372)" class="st1 st2">un Estegosaurio</text>
	</g>
	<g>
		<rect x="308.5" y="28.2" class="st0" width="80.1" height="55.1"/>
		<text transform="matrix(1 0 0 1 306.8976 40.875)" class="st1 st2">Brazos largos </text>
		<text transform="matrix(1 0 0 1 331.9424 58.1747)" class="st1 st2">de un </text>
		<text transform="matrix(1 0 0 1 313.4849 75.4372)" class="st1 st2">Iguanodon</text>
	</g>
	<g>
		<rect x="158.4" y="116.8" class="st0" width="124.1" height="55.1"/>
		<text transform="matrix(1 0 0 1 167.7009 128.0091)" class="st1 st2">La figura de un </text>
		<text transform="matrix(1 0 0 1 155.5172 146.3271)" class="st1 st2">viejo modelo de un </text>
		<text transform="matrix(1 0 0 1 159.1863 164.0091)" class="st1 st2">Tiranosaurio Rex</text>
	</g>
	<g>
		<path class="st3" d="M52.1,119.8c0,0-4.1-1.6-4.5-2"/>
		<path class="st4" d="M31.2,130.2c0,0-0.1-0.1-0.4-0.2c-0.8-0.4-2.4-1.5-2.4-2.3c0.1-0.9,0.9-4.3,1-4.5c0.1-0.3,3,0.6,3.3,0.8
			c0.3,0.2,2.9-7.7,2.9-7.7s3.4,0,3.8-0.2s1.4-6.4,1.4-6.4l7.1,0.5c0,0-0.5-2.3-0.7-3.7c-0.3-1.5-0.6-3.6-0.3-4.1
			c0.4-0.5,4-0.9,5.2-0.6c1.2,0.3,2.9,1.5,3.4,1.3c0.5-0.2,1.1-2.4,1.1-2.9s-0.5-1.4-0.7-2.7c-0.3-1.4-0.7-2.8,0.2-2.8
			c0.9,0,11.6,4.3,11.6,4.3s2.4-10.6,2.7-10.2c0.4,0.5,7.4,4.8,7.7,4.9c0.4,0.1,4-6.2,4.3-6.3c0.3-0.1,6.9,5.7,7.1,6.6
			c0.2,0.9,2.3,4.8,2.4,4.5c0.1-0.3,4.7-8.3,5.5-7.5c0.8,0.8,4.8,8.1,4.8,8.1s4.1-5,4.6-4.1c0.5,0.9,3.5,7.7,3.7,8.7
			c0.3,1,0.5,3.8,0.5,4.1c0,0.3-0.8,2.2-1.3,2.5c-0.2,0.2-1,1.1-1.8,2.2c-1.1,1.4-2.3,3-2.3,3l1.6,2.3l0.6-1.3c0,0,1-3.4,0.9-4.2
			c-0.1-0.8,2.6-1.3,3.2-1.6c0.5-0.4,4.4-6.1,4.8-5.6s2,5.5,2,6c0,0.5,4.1-0.7,4.5-0.7c0.5,0,0,3.2-0.2,4.2c-0.2,1-0.7,4.5-0.9,5
			c-0.2,0.5-5.5,5-5.5,5l3.9,3.4c0,0,1.2-4.8,1.2-5.1c0-0.3,4.7-4.8,4.9-4.5c0.2,0.3,0.5,3.3,0.5,3.3l2.6-0.6c0,0-0.5,2.9-0.5,3.6
			s-4.4,5.6-4.4,5.6l4,1.9l0.1-3.5l2.5-3.2l0.4,3.5l1.8-2c0,0,0.3,2.5,0.3,2.8c0,0.3-1.6,4.1-1.6,4.1l3-0.7c0,0,0-2.4,0.1-2.7
			c0.1-0.4,0.8-2.4,1-2.1l0.7,2.5l-1.1,2.8l-0.8,1.5c0,0-19,0.5-19.4,0.5c-0.4,0-38.5-19.4-38.5-19.4l-38.3,13.5L31.2,130.2z"/>
		<path class="st5" d="M5.2,130c0,0,0.3,0,2.6,0.4c2.4,0.4,16.8,2.3,27.3-2.7c10.5-5,12.1-5.6,16.7-8.3c4.6-2.6,15.9-10.2,29.5-9.4
			c13.6,0.8,25,5.9,28.6,8.4c3.5,2.5,8.5,6.5,10.6,8.6c2.1,2,8,5.3,11,5.7c3,0.5,5,0.5,7.1,0.2c2.1-0.3,4.8,0.8,7.5,1.1
			c2.6,0.3,4.5,1.3,4.5,2.6c-0.1,1.4-0.8,1-0.8,1s-0.2,0.9-2.1,1.3c-1.9,0.4-1.9,0-2.9,0.8c-1,0.8-3.4,0.1-4.6,0.5
			c-1.3,0.4-1.8,0.9-3.3,1.2c-1.5,0.3-2,0.2-2.7,0.5c-0.7,0.3-6.4,1-8.8,1.6c-2.5,0.6-2.7,1-2.3,1.7c0.5,0.7,2.9,4.7,4.2,5.6
			c1.3,0.9,2.2,1.3,2.5,2.7c0.3,1.5,0.4,2,0.3,3.1c-0.1,1.1-0.2,2,0.6,2.9c0.8,0.9,1.4,1.2,1.9,2.2c0.5,1,1.2,1.5,0.7,2
			c-0.5,0.5-1.9-0.5-1.9-0.5s-1,0.6-1.8,0.4c-0.8-0.3-2.5-1.2-3.8-1.7c-1.3-0.5-2.4-1.1-2-1.7c0.4-0.6,0.9-1.4,0.6-2.3
			c-0.3-0.9-0.5-1.7-1.2-2.1c-0.6-0.4-3.5-3.2-4.5-3.3c-1-0.1-2.9-1.5-3.4-2.4c-0.5-0.8-1.7-3.5-1.7-3.5s-2.9,0-3.6,1.5
			c-0.7,1.5-0.5,3.8-0.5,4.8s0.2,1.6,0.1,3.2c-0.1,1.5-0.9,2.5,0.2,3.4c1.1,0.9,1.8,1.5,2.9,2c1.1,0.5,1.4,0.7,2.3,1.5
			c0.9,0.7,1.8,1.5,1.5,1.7c-0.4,0.3-1.9,0.1-2.2,0c-0.3-0.1-1.5-0.2-2.4-0.2c-0.9,0-1.5,0.5-2.8,0.2c-1.3-0.4-2.2,0-2.8-0.7
			c-0.6-0.7-0.6-1.2-0.8-1.9c-0.2-0.7-2.5-4.5-2.8-6.1c-0.3-1.5-1.3-4.7-1.3-5c0-0.3-0.1-1.5-0.1-1.5s-5.3-1.3-7.2-1.4
			c-1.9-0.1-4.7-0.2-4.7-0.2s-0.5,2.1-0.5,3.7c0,1.6-0.4,4.4,0,5.7c0.4,1.4,0.5,2.1,1.6,3c1.2,0.9,1.1,1.3,2.6,2.1
			c1.5,0.8,2.9,2.2,2.9,2.2l-3.6-0.2c0,0-1.3,0.2-1.9,0.2c-0.6,0-3.1,0.3-4-0.1c-0.9-0.4-1.5-1.1-2.4-2.7c-0.9-1.6-1.2-1.7-1.1-3.6
			c0.1-1.9-0.8-3.2-1.5-4.1c-0.6-0.9-1.9-2.8-2.3-4.1c-0.4-1.3-0.7-2.8-0.7-2.8s-4.5,0.2-5.6-0.6c-0.1,0.1-1.2,2.6-2.6,3.5
			c-1.5,0.8-3.4,0.3-3.5,0.6c-0.1,0.4-2,2.2-2.8,3.1c-0.8,0.9-2,1.3-2,2.5c0,1.2-0.3,1.6,0.3,2.9c0.5,1.3,0.3,1.7,1.5,2.6
			c1.2,0.9,1.8,1.2,2.1,1.9c0.3,0.7,0.3,1.1,0.3,1.1s-2.5-0.5-3-0.6s-1.2-0.8-1.2-0.8s-0.2,0.8-0.9,0.8c-0.7,0-2.6-0.3-3.5-2.4
			c-0.9-2.1-1.6-5.2-1.5-5.9c0.2-0.7,1.2-1.5,1.7-2.6c0.5-1.2,1.7-3.6,1.7-3.6s0.3,0.1,0.6-1.2c0.4-1.3,1.5-2.9,2.4-3.9
			c0.8-1,1.4-1.4,1.7-2.1c0.4-0.7,1.5-1.3,0.7-1.9c-0.8-0.6-1-0.6-2-1.2c-1-0.5-3-4.1-3-4.1s-33.4,3.7-46.1-1.5
			C0.8,128.3,5.2,130,5.2,130z"/>
		<path class="st5" d="M21.3,131.8c0,0-5.6-9-6.8-13.2c0.2-0.4,9.1,12.1,9.1,12.1S23,132.7,21.3,131.8z"/>
		<path class="st5" d="M24.2,130.6c0,0,0.8-9.2-0.4-12.2c0-0.2,3.2,5.7,2.6,11.9C26.3,130.3,24.2,130.6,24.2,130.6z"/>
		<path class="st5" d="M16.3,130.6c0,0,0.2,1.3-0.9,1.4c-1.1,0.1-1.9,0.2-2-0.5s-4.6-7.8-4.8-10.3c-0.2-2.5,1.4,1.6,2.5,3.4
			C12.1,126.4,16.3,130.6,16.3,130.6z"/>
		<path class="st5" d="M17.4,131c0,0,2.2-6.8-0.2-13.1c0.4,0.5,2.3,3.8,2.4,6.3c0.1,2.5-0.4,6.8-0.4,6.8L17.4,131z"/>
		<path class="st6" d="M62.6,125.9c0.1,1.6,1.2,2.9,2.4,4c1.2,1.1,2.5,2,3.5,3.2c0.8,1,1.3,2.1,1.9,3.1c2.3,3.9,6,7,8,11.1"/>
		<path class="st6" d="M72.5,146.6c-0.6-0.5-1.1-1-1.7-1.5c-0.3-0.2-0.6-0.5-0.8-0.8c-0.3-0.4-0.4-0.9-0.6-1.4
			c-0.4-0.8-1-1.4-1.9-1.7c-0.4-0.1-0.8-0.2-1.1-0.6"/>
		<path class="st6" d="M63.8,133.1c0.2,1,1,1.8,1.8,2.4c1.4,1.1,2.8,2.2,4.2,3.4c0.3,0.3,0.7,0.5,0.9,0.9c0.5,0.7,0.7,1.5,1,2.4
			c0.7,2.2,2,4.4,4.2,4.9"/>
		<path class="st6" d="M77.1,146.7c-0.1,0.1-0.3,0-0.5-0.1c-1.1-1-2-2.4-2.6-3.8"/>
		<path class="st6" d="M58.7,129.3c0,1.6,0.9,3.2,2.2,4.2c0.6,0.4,1.3,0.7,2,0.5"/>
		<path class="st6" d="M57.9,131c0.2,0.5,0.2,1,0.4,1.5c0.4,1,1.4,1.6,2.3,2.1c0-0.1,0-0.2,0-0.3"/>
		<path class="st6" d="M60.3,129.9c0.4,0.6,0.9,1.1,1.5,1.6c0.4,0.3,0.8,0.6,1.1,1c0.3,0.4,0.5,0.9,0.3,1.4"/>
		<path class="st6" d="M63.3,131.8c-0.5-1.1-1.1-2.1-1.7-3.1"/>
		<path class="st6" d="M101.7,141.7c0.1-0.4,0.2-0.7,0.3-1.1c0.1-0.5,0.3-0.9,0.6-1.3c0.3-0.3,0.6-0.6,1-0.8
			c0.5-0.3,0.9-0.6,1.5-0.8c0.3-0.1,0.6-0.1,0.9-0.2c0.8-0.1,1.7-0.3,2.5-0.1c0.8,0.1,1.7,0.6,2.1,1.3c-0.1-0.1-0.2-0.1-0.3-0.1"/>
		<path class="st6" d="M102.1,143.1c0.1,0,0.1,0.2,0,0.2c-0.1,0-0.2,0-0.3,0c-0.6-0.3-0.9-1-1-1.6c-0.3-1.5,0-3.1,0.9-4.3
			c0.6-0.8,1.4-1.4,2.1-2.1c0.7-0.7,1.4-1.5,1.5-2.5"/>
		<path class="st6" d="M102.8,132.7c-0.9,1.4-1.8,2.9-2.7,4.3c-0.3,0.5-0.6,1-0.8,1.5c-0.2,0.5-0.2,1.1-0.1,1.7
			c0.1,1.7,0.9,3.4,2.4,4.3"/>
		<path class="st6" d="M93.5,147.9c0.5-1.1,0.7-2.3,0.3-3.5c-0.6-1.9-2.5-3.2-2.8-5.2c-0.2-1.2,0.1-2.7-0.7-3.5"/>
		<path class="st6" d="M89.1,147.5c0.6-2.1,0.7-4.4,0.1-6.5c-0.2-0.9-0.5-1.7-0.6-2.6c0-0.6,0.1-1.3,0.1-1.9
			c-0.1-1.5-0.9-2.7-1.3-4.1c-0.4-1.3-0.4-2.7-0.8-4c-0.3-1.3-0.9-2.3-0.9-3.7c0-1.6,0.5-3.1,1.3-4.5"/>
		<path class="st6" d="M86.1,119.4c-0.4,0.4-0.6,1-0.8,1.5c-0.4,2-0.1,4.2,0.9,6"/>
		<path class="st6" d="M87.6,132c-0.3-0.9-0.4-1.8-0.4-2.7c-0.1-1.5,0.2-2.9,0.4-4.3c0.1-0.4,0.1-0.7,0.2-1.1"/>
		<path class="st6" d="M88.6,128.5c-0.1,1.8-0.2,3.5-0.3,5.3"/>
		<path class="st6" d="M65.2,137.6c1.3,1.1,3.1,1.7,3.8,3.2c0.3,0.7,0.4,1.4,0.8,2"/>
		<path class="st6" d="M66.3,143.9c0.5,0.2,1,0.7,1.2,1.2c0.2,0.4,0.2,0.9,0.4,1.3c0.3,0.7,0.8,1.4,1.6,1.7"/>
		<path class="st6" d="M64.2,147.6c0.3,1.2,1.2,2.3,2.3,2.7"/>
		<path class="st6" d="M63.3,149.1c0.5,0.8,1.1,1.5,1.9,2.1c0.1,0,0.2,0,0.1-0.1"/>
		<path class="st6" d="M59.8,159.3c0-0.1,0.1-0.1,0.2,0c0,0.1,0,0.1,0,0.2c0,1.4,1.4,2.3,1.8,3.6c0,0.1-0.1,0.2-0.1,0.1"/>
		<path class="st6" d="M88.1,161.7c0.2,0,0.4,0.1,0.6,0.2c1.2,0.7,2.3,1.6,3.1,2.7"/>
		<path class="st6" d="M108.8,163.4c1.1-0.1,2.2,0.3,2.9,1"/>
		<path class="st6" d="M111.7,162.3c1.1,0.3,2,1.1,2.5,2.1c0-0.1,0-0.2,0-0.3"/>
		<path class="st6" d="M128.3,160.2c1,0.7,1.8,1.7,2.3,2.8c0,0.1,0.1,0.2,0,0.2c0,0.1-0.2,0-0.1-0.1"/>
		<path class="st6" d="M124.6,158.6c0.9,0.3,1.8,0.4,2.7,0.4c0.4,0,1-0.1,1.1-0.5"/>
		<path class="st6" d="M124.8,157.6c1,0.4,2.1,0.4,3.1,0.1"/>
		<path class="st6" d="M127.1,155.9c-0.5,0.1-0.8,0.4-1.3,0.6c-0.7,0.3-1.5,0.2-2.1-0.1"/>
		<path class="st6" d="M113.3,146.3c0.9-0.2,1.6-0.7,2.2-1.4c0.1-0.1,0.2-0.3,0.4-0.4c0.1-0.1,0.3-0.2,0.4-0.2
			c0.9-0.3,1.8-0.1,2.7,0c0.8,0,1.5,0,2.3-0.1c0.2,0,0.5-0.1,0.7-0.3c0.2-0.2,0.3-0.4,0.2-0.7"/>
		<path class="st6" d="M113.3,138.7c0.5,0.9,0.6,2.1,0.1,3.1c-0.4,0.7-1,1.2-1.4,1.9c-0.4,0.5-0.7,1.1-1,1.7"/>
		<path class="st6" d="M101.9,150.7c-0.3-0.6,0-1.3,0.4-1.8c0.6-0.8,1.6-1.3,2.6-1.3"/>
		<path class="st6" d="M104,146.6c-1.3,0.1-2.4,1.2-2.6,2.4c-0.1-0.7-0.2-1.5-0.1-2.2c0.4-1.9,0.8-3.8,1.2-5.7"/>
		<path class="st6" d="M117.1,139.6c0.3,0.9-0.1,1.9-0.5,2.7c-0.5,0.8-1.1,1.6-1.3,2.5"/>
		<path class="st6" d="M116.6,143.9c0.1-0.2,0.1-0.4,0.1-0.6c0.3,0.1,0.6-0.2,0.8-0.4c0.9-1,1.4-2.5,1.3-3.9"/>
		<path class="st6" d="M118.8,143.1c1.3-0.8,2.2-2.3,2.3-3.8"/>
		<path class="st6" d="M139.1,134.8c0.5,0.1,1.1,0.2,1.5-0.1c0.1-0.1,0.2-0.2,0.3-0.2c0.5-0.4,1.3-0.3,1.8,0.2
			c0.2,0.2,0.3,0.5,0.2,0.8c-0.1,0.3-0.6,0.4-0.9,0.2s-0.4-0.6-0.3-1"/>
		<path class="st6" d="M147.1,135.5c0.5,0,1,0.2,1.4,0.5"/>
		<path class="st6" d="M139.5,138.6c0.7,0,1.4-0.1,2.1-0.3c0.4-0.1,0.8-0.3,1.2-0.5c1.4-0.5,2.8-0.5,4.3-0.5c0.6,0,1.3,0,1.9,0.2"/>
		<path class="st6" d="M139,137.9c0.1-0.1,0.2-0.3,0.2-0.5C139.1,137.6,139.1,137.8,139,137.9"/>
		<path class="st6" d="M138.8,136.2c0.1,1.4,0.1,2.7-0.2,4.1c0-0.1-0.1-0.2-0.1-0.3"/>
		<path class="st6" d="M137.6,137c0.4,1.1,0.4,2.4-0.2,3.5c0,0,0,0,0,0"/>
		<path class="st6" d="M136.4,137.1c0.1,0.8,0.2,1.5,0.2,2.3c0,0.6-0.1,1.4-0.7,1.6"/>
		<path class="st6" d="M132.7,139.2c0.2,0.8,0,1.6-0.6,2.2"/>
		<path class="st6" d="M67.9,98.4c0.2,2.4-0.5,4.9-2,6.9c-0.1,0.2-0.3,0.4-0.3,0.6c-0.2,0.7,0.6,1.2,1.2,1.5c1.6,0.9,3.3,2,3.9,3.7
			c0-0.2,0-0.4,0-0.5"/>
		<path class="st6" d="M78.3,93.7c0.1,0,0-0.2-0.1-0.1c-0.1,0.1,0,0.3,0.1,0.3c1.9,2.1,3.8,4.2,5.7,6.3c0.4,0.5,0.9,1,0.9,1.7
			c0,0.3-0.1,0.6-0.2,0.8c-1,2.3-1.9,4.7-2.9,7c0-0.2,0-0.4,0-0.6"/>
		<path class="st6" d="M71.6,91.9c0.6,2.6,1.2,5.1,1.9,7.7c0.7,2.9,1.4,5.8,1.7,8.7c0-0.2,0.1-0.3,0.1-0.5"/>
		<path class="st6" d="M70.9,97.7c1.3,3.9,2.6,7.8,3.6,11.8c0-0.1,0-0.2,0-0.4"/>
		<path class="st6" d="M70.4,101.5c0.5,1.5,1,2.9,1.6,4.3c0.7,1.4,1.5,2.7,1.6,4.2c0-0.1,0-0.2,0-0.4"/>
		<path class="st6" d="M68.8,104.2c-0.1,0.2,0,0.4,0.1,0.6c0.8,1.4,1.5,2.9,2.3,4.3c0.3,0.5,0.6,1.1,1.2,1.1"/>
		<path class="st6" d="M76.6,109.8c0.3-2.7,0.5-5.4,0.5-8.1"/>
		<path class="st6" d="M78.6,99c0.3,3.8,0.1,7.6-0.8,11.3c0-0.2,0-0.4,0-0.5"/>
		<path class="st6" d="M75,98.8c0.3,0.8,0.4,1.6,0.4,2.4c0.1,1.9,0.2,3.8,0.3,5.8"/>
		<path class="st6" d="M80.5,100c-0.3,3.2-0.8,6.4-1.6,9.5c0-0.1,0.1-0.2,0.1-0.3"/>
		<path class="st6" d="M82.1,102c0.1,0.4,0,0.8-0.1,1.2c-0.5,2.1-1.1,4.2-1.6,6.3"/>
		<path class="st6" d="M91.9,98.5c-0.1-0.1-0.3,0.1-0.4,0.2c-0.8,1.9-2.1,3.7-3.6,5.1c-0.3,0.2-0.5,0.5-0.6,0.8c0,0.1,0,0.3,0.1,0.4
			c0.5,1.9,0.9,3.8,1.4,5.7c0,0.1,0.3,0.3,0.3,0.1"/>
		<path class="st6" d="M102.3,99c1.8,3.2,2.9,6.8,3,10.4c-2,1.2-3.8,2.7-5.4,4.5c-0.1-0.3,0-0.5,0.1-0.8"/>
		<path class="st6" d="M111.6,112.7c-0.7,2-1.4,3.9-2.1,5.9c0-0.3,0.1-0.6,0.3-0.8"/>
		<path class="st6" d="M118.5,111.4c0,1.8-0.1,3.6-0.1,5.4c0,0.5,0,1-0.3,1.3c-0.2,0.3-0.5,0.4-0.9,0.6c-1.1,0.6-2.2,1.3-3.1,2.1
			c0-0.2,0-0.3,0-0.5"/>
		<path class="st6" d="M112.6,119.8c1.8-2.5,3.7-5.1,4.6-8"/>
		<path class="st6" d="M116.3,109.8c-1,3.2-2.4,6.2-4.1,9.1"/>
		<path class="st6" d="M114.5,110.8c-1.1,2.5-2.1,4.9-3.3,7.3"/>
		<path class="st6" d="M109.7,115c-0.3,0.6-0.5,1.3-0.5,2"/>
		<path class="st6" d="M118.8,119.4c-0.7,0.9-1.5,1.8-2.5,2.4"/>
		<path class="st6" d="M127.5,121c-0.4,0.2-0.5,0.7-0.5,1.2c0,1.2,0,2.5-0.1,3.7c-0.5,0-0.9,0.3-1.3,0.6c-0.7,0.5-1.5,1-2,1.7
			c-0.1,0.1-0.2,0.2-0.3,0.2s-0.1-0.3,0-0.2"/>
		<path class="st6" d="M123.3,122.4c-0.7,1.4-1.1,2.9-1.3,4.4"/>
		<path class="st6" d="M124.4,122.6c-0.8,1.6-1.5,3.2-2.1,4.9"/>
		<path class="st6" d="M125.7,123.8c-0.9,1.3-1.8,2.7-2.7,4"/>
		<path class="st6" d="M55.3,103.1c1.6,0.8,3.1,1.7,4.7,2.4c1,0.5,2,0.9,3.1,1.1c-1,2.1-0.3,4.7-1,7c0,0.1-0.1,0.2-0.2,0.2
			c-0.1,0,0-0.2,0-0.1"/>
		<path class="st6" d="M47.8,110.4c0-0.1-0.1-0.1-0.2,0c-0.1,0.1-0.1,0.1-0.1,0.2c0,2.3-0.4,4.5-0.9,6.7c0.5,0.3,1,0.5,1.5,0.6"/>
		<path class="st6" d="M40.1,116c0.4,0.4,1,0.6,1.5,0.9c1.1,0.5,2.2,0.9,3.3,1.4c-0.1,1.3-0.2,2.6-0.4,4c0,0.1,0,0.2-0.1,0.2
			c-0.1,0-0.1-0.2,0-0.1"/>
		<path class="st6" d="M33.6,123.7c0-0.2-0.3,0-0.3,0.1c0,0.3,0.3,0.4,0.5,0.6c1.1,0.7,2.2,1.4,3.5,1.8c-0.1-0.1-0.2-0.2-0.3-0.3"/>
		<path class="st6" d="M34.6,121.9c1,1.1,2,2.2,3.1,3.2c0.2,0.2,0.4,0.3,0.6,0.3c0-0.1,0-0.2,0-0.4"/>
		<path class="st6" d="M35.8,119.6c0,0.2,0,0.3,0.1,0.5c0.6,1.4,1.4,2.6,2.4,3.6c0.2,0.2,0.5,0.4,0.7,0.4c0-0.1,0-0.2,0-0.3"/>
		<path class="st6" d="M36.9,117.8c0.8,2,1.7,3.9,2.9,5.7c0.2,0.2,0.4,0.5,0.6,0.5c0-0.4-0.1-0.8-0.2-1.2"/>
		<path class="st6" d="M39.2,117.7c0.7,1.9,1.4,3.8,2.3,5.6c0-0.2,0-0.5,0-0.7"/>
		<path class="st6" d="M42.2,112.9c0.9,1.5,2.5,2.5,3.3,4"/>
		<path class="st6" d="M49.4,110.5c1.2,1.1,2.3,2.3,3.4,3.5c0.4,0.4,0.7,0.8,1,1.3c0.2,0.4,0.4,0.7,0.6,1.1"/>
		<path class="st6" d="M48.5,113.4c0.3,0.4,0.7,0.7,1.1,1c1.2,1,2.5,2,3.7,3c0.1,0.1,0.3,0.3,0.2,0.4"/>
		<path class="st6" d="M48.1,115.8c0.9,0.7,1.8,1.3,2.7,2c0.5,0.4,1,0.7,1.6,1c0.1-0.1,0.2-0.2,0.2-0.4"/>
		<path class="st6" d="M49.7,106.3c0.2,0.4,0.5,0.7,0.7,1.1c2.3,2.5,4.7,5,6.1,8.1c0-0.2,0-0.3,0.1-0.5"/>
		<path class="st6" d="M52,104.4c2.3,2,4,4.6,4.9,7.5c0.4,1.2,0.7,2.6,1.5,3.6"/>
		<path class="st6" d="M57.6,106.5c1.1,2.4,1.9,5.1,2.1,7.8c0-0.2,0.1-0.4,0.1-0.5"/>
		<path class="st6" d="M59.2,100.1c0.4,1.3,0.9,2.5,1.6,3.6c0.2,0.3,0.4,0.6,0.8,0.6"/>
		<path class="st6" d="M61.7,98.7c1.2,4.2,2.5,8.4,4,12.6"/>
		<path class="st6" d="M63.4,107.4c0.4,1.6,0.9,3.2,1.4,4.8c0-0.2,0-0.3,0-0.5"/>
		<path class="st6" d="M66.2,108.3c0.3,1.1,0.6,2.1,1,3.1"/>
		<path class="st6" d="M63.7,99.2c0.6,1.7,1.2,3.5,1.8,5.2"/>
		<path class="st6" d="M86.6,95.6c0.1,3.2,0,6.5-0.4,9.7c-0.2,1.5-0.4,3.1-0.3,4.6c-0.3-0.1-0.6-0.1-0.9,0c0-1.9,0.1-3.9,0.1-5.8"/>
		<path class="st6" d="M85.1,95.3c0,1.5,0.1,3,0.1,4.5"/>
		<path class="st6" d="M82.3,92.4c0.3,2,0.7,4,1,6"/>
		<path class="st6" d="M93.3,99.7c0.5,4.2,0.5,8.5-0.2,12.6c0-0.2,0-0.4,0-0.5"/>
		<path class="st6" d="M90.7,102.8c0.2,2.4,0.4,4.8,0.6,7.2c0,0.5,0.1,1,0.1,1.5"/>
		<path class="st6" d="M95,112.4c1.5-5,2.4-10.1,2.7-15.3"/>
		<path class="st6" d="M96.1,99.4c0,2.4-0.1,4.9-0.4,7.3c-0.1,0.8-0.2,1.5-0.5,2.2"/>
		<path class="st6" d="M99.4,100c0,4.3-0.8,8.6-2.4,12.6"/>
		<path class="st6" d="M98.4,113c1.3-2.7,2.4-5.5,3.2-8.4"/>
		<path class="st6" d="M103.4,104.9c-0.3,2.1-1.1,4.1-2.3,5.8"/>
		<path class="st6" d="M106.7,102c-0.2,0.9-0.3,1.9-0.5,2.8"/>
		<path class="st6" d="M108.8,104.8c-1.1,2.3-2.3,4.7-3.5,6.9c-0.5,0.9-1,1.8-1.8,2.4"/>
		<path class="st6" d="M104.2,110.9c-0.6,1.1-1.2,2.3-1.8,3.4"/>
		<path class="st6" d="M122,115.3c-0.7,1.6-1.4,3.1-2.2,4.6"/>
	</g>
	<g>
		<path class="st4" d="M171.7,32.5c0-0.2-0.8-1.5-0.3-2.9c0.5-1.3,1.6-2.7,2.3-3.2s1.4-0.7,2.1-0.6c0.7,0.1,2,0.2,2.4,0.2
			c0.4,0,2.1,0.2,2.7,0.2c0.6,0,0.8,0.4,1.8,0c1-0.4,1.6-0.8,2.2-1.1c0.6-0.2,2.2,0.4,2.8,0.8c0.7,0.4,1.2,0.7,1.8,0.7
			c0.6,0,2,0.6,2.8,1.9c0.8,1.3,0.9,0.8,1.5,1.1c0.6,0.3,1.1,0.6,1.4,1.2c0.3,0.6,0.5,1.6,0.4,2.1c-0.1,0.5,0.8,2.5,1.9,3.4
			c1.1,0.9,5,2.9,6.3,3.3c1.3,0.4,1.8,1.2,2.5,1.4c0.8,0.2,0.9,0,1.8,0.3c0.9,0.2,2.5,0.2,5.3,2.2c2.8,1.9,5.4,3.6,6.7,4.6
			c1.3,1.1,1.6,1.6,2.9,2.3c1.3,0.7,3,1.5,4.1,1.8c1.1,0.4,4.3,3.1,6,5.7c1.6,2.6,1.3,4.4,3.2,6.2c1.9,1.7,3.9,5.4,4.4,7.7
			c0.5,2.3,0.7,3.3,1.3,5.8c0.6,2.5,0.7,4.7,1.6,7.5c0.9,2.8,2.3,7.7,3.1,9.4c0.9,1.7,2.5,5.4,5.8,6c3.3,0.6,7-1.1,7.2-0.5
			c0.2,0.6-3.8,3.8-8.2,4c-4.5,0.2-12.1-5.4-16.8-15.1c-4.7-9.7-8-9.5-8-9.5s-0.4,1.3,0.1,1.8s2.4,1,3.4,1.8
			c0.9,0.7,2.1,1.5,2.6,3.4c0.5,1.8,0.5,2.4,1.4,4.1c0.9,1.8,1.9,2.5,2.4,3c0.6,0.5,1.1,0.6,1.1,1.6c0,0.9,0.1,0.7-0.3,2.2
			c-0.4,1.5-0.6,2.4-0.5,4c0.1,1.6,0.4,2.7,0.1,3.6c-0.3,0.9-1.1,1.9-1.1,2.4c0,0.5,0.2,0.7-0.3,0.9c-0.6,0.1-2.3,0.4-2.8,0.5
			c-0.5,0.1-0.9-0.5-0.9-0.5s-1.5,0.1-2.2,0.1c-0.7,0.1-1.4-0.1-1.6,0.2c-0.3,0.3-1.5,0.3-1.5,0.3l0-1.2c0,0-2.1-0.1-2.4,0.4
			s0.8-2.1,1.9-2.5c1.1-0.4,2.7-0.3,3.4-0.8c0.7-0.4,2.3-1.7,2.6-3.5c0.3-1.8,0.3-3.2,0.2-3.7c-0.1-0.5,0-1,0-1.5
			c0-0.5-0.5-1.2-0.9-1.5c-0.5-0.3-10-8.5-11-9c-0.9-0.5-1.3-0.4-1.6-1.6c-0.2-1.3-1-3.5-1.3-4.4c-0.3-0.9-0.7-2.3-0.7-2.5
			c-0.1-0.2-2,1.2-3.7,1.8c-1.7,0.6-3.5,0.8-3.8,1.5c-0.4,0.7-0.8,2.2,0.2,3.2c0.9,1,1.4,2.2,1.3,3.6c-0.1,1.4-0.1,2.9-0.4,4.1
			c-0.3,1.2-0.4,2.5-0.2,3.5c0.2,1,0.3,2,0.5,3c0.2,0.9,0,2-0.4,2.3c-0.4,0.4-0.9,0.8-1,1.1c-0.1,0.3,0,0.7,0,1.7c0,1,0,1.2-0.5,1.9
			c-0.5,0.6-1.1,1.3-1.1,1.3l-0.5-3.4c0,0-0.3-0.5-1.4,1.4c-1,1.9-0.6,1.9-1.1,2.6c-0.5,0.8-3.3,1-4.3,1c-1,0-4.3,0.1-4.3,0.1
			s-1.3,0.3-2,0.4c-0.6,0.1-1.4,0.1-1.4,0.1l0.8-1.1l-2.2,0.7c0,0,0.6-1.2,1.1-1.9c0.6-0.7,1.6-1.2,2.6-1.2c1.1,0,2.8,0.1,3.5-0.3
			c0.6-0.4,1.7-1.1,2.7-1.9c1-0.8,1.3-0.6,2-1.6c0.7-0.9,1-1.6,1-1.6c0.5-1.5,0.4-1,0.5-2.4c0.1-1.4,0.4-1.8-0.9-5.8
			c-1.3-4-2-6.3-2.1-7.2c-0.1-0.8,0.3-0.6,0-1.5c-0.3-0.9-0.8-1.4-0.8-2.6c0-1.2,0.7-2.1,1.3-3.1c0.6-1.1,1.8-3.5,2.6-4.9
			c0.8-1.4,2.3-4.3,2.3-4.3s-5.5-3.5-7.3-5.6c-1.8-2.2-2.5-2.9-3.1-3.5c-0.6-0.6-2.3-1.8-2.3-1.8s-0.5,0.9-1.1,1.4
			c-0.6,0.6-3.4,0.1-3.9,0c-0.5-0.1-1.8-0.4-2.5-0.3c-0.7,0.1-0.7,0.1-1.4,0.8c-0.7,0.8-1.1,1.4-1.1,1.4l-0.3-0.9
			c0,0-0.9,1.1-0.7,0.5c0.1-0.5,0.7-1.2,1.1-1.9c0.5-0.7,0.6-1.1,1.5-1.4c0.9-0.4,1.3-0.3,1.8-0.3c0.5,0.1,1.1,0.1,1.1,0.1
			s1.2,0.1,2,0s1-0.7,0.7-0.9c-0.3-0.3-0.7-0.4-0.9-0.3c-0.2,0.1-0.5,0.6-0.5,0.6s0-0.7-0.2-0.6c-0.2,0.1-0.8,0.5-0.9,0.7
			c-0.2,0.1-0.6,0-0.1-0.8c0.5-0.8,0.7-1.3,1.2-1.6c0.5-0.3,0.5-0.5,0.9-0.4c0.4,0,0.8,0.1,0.8,0.1s0.3-0.8,0.4-1.3
			c0.1-0.5,0.4-1.1,0.3-1.3c-0.1-0.2-2.8-3.4-3.5-4.9c-0.7-1.5-1.1-2.3-1.8-2.1c-0.7,0.2-1.8-0.3-2.7,0.3c-1,0.6-1.2,0.8-2,0.6
			c-0.7-0.1-1.6-0.5-1.8-0.8c-0.1-0.3-1.3-0.3-1.7-0.2c-0.4,0.2-2.4,0-3.2-0.9c-0.8-0.9-1.2-1.9-1.2-2.4c0-0.5,0.1-1.5,0.5-1.1
			c0.4,0.4,0.9,0.5,0.9,0.5s-0.5-1.3,0-1.1c0.5,0.3,1,0.8,1.1,0.6c0.1-0.2-0.3-1.3,0.3-0.9c0.6,0.4,0.8,0.5,0.8,0.5s-0.3-1.2,0-1
			c0.3,0.2,0.5,0.3,0.7,0.4s-0.1-0.8,0.2-0.9c0.3-0.1,0.4,0,0.7,0.2c0.3,0.3,0.5-0.6,0.5-0.6s-0.6-0.3-1-0.4
			c-0.5-0.1-0.6-0.4-0.8-0.6c-0.2-0.2-0.8-0.6-0.8-0.2c0,0.4-0.9,0.5-0.9,0.1c0-0.4-0.3-0.3-0.5,0c-0.3,0.3-0.7,1-0.8,0.3
			c-0.1-0.7-0.5-1.4-0.5-0.8c-0.1,0.6-0.4,1.2-0.5,0.7c-0.1-0.5-0.4-1-0.4-1l-0.8,0.1l-0.3-0.8c0,0-0.5,0.7-0.5,0.5
			c0-0.2-0.2-1.2-0.2-1.2l-0.4,0.7L171.7,32.5z"/>
		<path class="st6" d="M176.4,39.7c1.2-0.3,2.3-0.7,3.4-1.3c0.9-0.5,1.7-1.1,2.6-1.4c0.7-0.3,1.4-0.4,2-0.7c0.6-0.3,1.1-0.9,1.7-1.2
			c0.9-0.4,2-0.4,2.6-1.2c0-0.1,0.1-0.1,0.1-0.2c0-0.2-0.2-0.2-0.4-0.2c-0.9,0.1-1.8,0.4-2.6,0.3c-1.4-0.1-2.7-0.9-4.1-1
			c-1.2-0.1-2.4,0.5-3.5,0c-0.5-0.2-0.9-0.5-1.3-0.8c-0.8-0.5-1.8-0.8-2.7-0.9c-0.8-0.1-1.8,0.2-2.1,0.9c-0.1,0.3,0,0.7,0.3,0.8"/>
		<path class="st6" d="M173.2,31.9c-0.1,0.4,0.1,0.9,0.6,1c0.1-0.3,0.2-0.6,0.4-0.9"/>
		<path class="st6" d="M174.3,32.2c-0.1,0.4,0,0.7,0.3,1c0.3-0.3,0.5-0.7,0.7-1.1c0,0.4,0.1,0.9,0.5,1.2c0.3-0.3,0.5-0.7,0.6-1.1
			c0.1,0.4,0.2,0.8,0.3,1.1c0,0.2,0.2,0.4,0.4,0.3c0.1,0,0.1-0.1,0.1-0.2c0.1-0.2,0.2-0.5,0.3-0.7c0,0.5,0,1.1,0.5,1.3
			c0.1-0.3,0.2-0.6,0.3-0.9c0,0.5,0.2,1,0.5,1.4c0.3-0.3,0.4-0.7,0.3-1.1c0.2,0.3,0.1,0.8,0.4,0.9c0.2,0.1,0.4-0.1,0.5-0.3
			c0.1-0.2,0-0.4,0-0.6c0,0.4,0.3,0.8,0.6,0.9c0.2-0.3,0.2-0.7,0.2-1c0.2,0.2,0.3,0.4,0.5,0.6c0.2-0.1,0.3-0.3,0.4-0.6
			c0.1,0.2,0.2,0.3,0.2,0.5c0.1-0.2,0.3-0.3,0.4-0.5c0,0.2,0.2,0.5,0.4,0.4c0.2,0,0.4-0.3,0.3-0.5c0,0.3,0.1,0.6,0.3,0.9
			c0.2-0.2,0.4-0.4,0.6-0.7c0.1,0.3,0.2,0.6,0.2,0.9c0.2-0.1,0.4-0.3,0.5-0.6c0,0.3,0.2,0.7,0.4,0.8c0-0.1,0.1-0.3,0.2-0.4
			c0.1,0.1,0.1,0.3,0.2,0.4c0.2-0.3,0.3-0.6,0.2-0.9"/>
		<path class="st6" d="M180.4,37.9c0-0.5,0.3-1,0.7-1.3c0.1,0.3,0.2,0.5,0.4,0.8c0-0.4,0-0.7,0.2-1c0-0.1,0.1-0.1,0.1-0.1
			c0.1,0,0.2,0.1,0.2,0.2c0.1,0.2,0.2,0.4,0.2,0.6c-0.1-0.4,0-0.7,0.1-1.1c0-0.1,0.1-0.2,0.2-0.1c0.1,0,0.1,0.1,0.1,0.1
			c0.2,0.3,0.3,0.5,0.5,0.8c-0.1-0.4,0-0.9,0.1-1.3c0.4,0,0.5,0.4,0.6,0.8c0-0.4,0.1-0.8,0.3-1.1c0.1,0,0.2,0.1,0.3,0.3
			c0,0.1,0.1,0.3,0.2,0.3c0-0.1,0.1-0.2,0.1-0.1"/>
		<path class="st6" d="M174.5,27.3c-0.4,0.4-0.8,0.8-1.1,1.3c-0.1,0.2-0.2,0.4-0.1,0.5"/>
		<path class="st6" d="M183.7,28.2c0.3-0.6,0.8-1.2,1.4-1.6c0.2-0.2,0.5-0.3,0.7-0.3c0.3,0,0.5,0.1,0.8,0.3c0.4,0.3,0.7,0.8,0.9,1.3
			c0.1,0.3,0.1,0.8-0.1,1c-0.1,0.1-0.3,0.2-0.4,0.3c-0.2,0.1-0.5,0.2-0.7,0.3c-0.2,0.1-0.4,0.1-0.5,0.1c-0.2,0-0.4-0.1-0.4-0.3"/>
		<path class="st6" d="M184.4,28.2c0.6-0.4,1.4-0.5,2.1-0.3c0,0.2,0,0.4,0,0.7"/>
		<path class="st6" d="M185,27.8c0-0.3,0.3-0.6,0.7-0.5c0,0.2,0,0.4,0.1,0.6"/>
		<path class="st6" d="M184.1,28.4c0,0.4,0,0.7,0.2,1.1c0.2,0.3,0.5,0.6,0.9,0.5"/>
		<path class="st6" d="M184.2,30.1c0.2,0.2,0.5,0.3,0.8,0.3c0.7,0.1,1.3-0.1,2-0.3c0.5-0.2,1.1-0.4,1.4-0.9c0.3-0.5,0.2-1.1,0.1-1.7
			"/>
		<path class="st6" d="M189.2,30.1c-0.6,1.2-2,2-3.3,1.8"/>
		<path class="st6" d="M180.5,42.8c1,0.1,2.1-0.3,3-0.8c0.9-0.5,1.8-1.1,2.7-1.5c0.5-0.2,1-0.3,1.5-0.5c0.8-0.3,1.5-0.8,2-1.5
			c0.3-0.4,0.6-0.9,0.5-1.4"/>
		<path class="st6" d="M185.7,37.3c-0.7,0.6-1.5,1.1-2.3,1.5c-0.8,0.4-1.7,0.7-2.7,0.7"/>
		<path class="st6" d="M188.5,37.9c0.2,0.7-0.1,1.4-0.6,1.9c-0.1,0-0.1-0.1-0.1-0.2"/>
		<path class="st6" d="M189.2,37.5c0.1,0.3,0.2,0.7,0.1,1.1c0,0.2-0.2,0.5-0.4,0.5"/>
		<path class="st6" d="M191,32.7c0.4-0.1,0.7-0.3,0.9-0.5c0.1-0.1,0.2-0.3,0.3-0.4c0.3-0.4,1-0.5,1.4-0.2"/>
		<path class="st6" d="M195.1,31.6c1,1.2,0.3,2.8-0.8,3.5"/>
		<path class="st6" d="M195.1,32.8c-0.5,1.3-1.7,2.4-3.1,2.7"/>
		<path class="st6" d="M194.6,37c-0.3,0.7-0.7,1.3-1.2,1.9c-0.5,0.5-1,0.8-1.6,1.2c-0.1,0.1-0.3,0.2-0.4,0.3
			c-0.7,0.4-1.4,0.9-1.8,1.6"/>
		<path class="st6" d="M191.5,41.5c0.4-0.3,0.8-0.6,1.2-0.9c1.2-0.8,2.4-1.7,2.9-3"/>
		<path class="st6" d="M196.2,37.3c0.2,0.9,0.1,1.8-0.3,2.6c-0.4,0.8-1,1.5-1.8,1.9"/>
		<path class="st6" d="M197.4,39.9c-0.1,1.1-0.6,2.2-1.4,3"/>
		<path class="st6" d="M197.2,47.5c-0.8,2-0.6,4.3-0.8,6.5c0,0.2-0.1,0.5-0.3,0.6c-0.2,0.2-0.6,0-0.8-0.1c-0.6-0.4-1.2-1-1.9-1.2
			c-0.6-0.2-1.3-0.2-1.6-0.8"/>
		<path class="st6" d="M192.1,55.1c0.5,0.2,0.9,0.3,1.4,0.5c1.4,0.5,2.8,1,4,1.8c0.5,0.4,1.1,0.8,1.8,0.7c0.5-0.1,1-0.5,1.2-1
			c0.2-0.5,0.3-1.1,0.4-1.6c0.2-1.1,0.5-2.3,1-3.3c0.3-0.6,0.6-1.1,0.9-1.7c0.5-1.3,0.2-2.8-0.6-3.9"/>
		<path class="st6" d="M203.2,47.6c0.4,0.8,0.2,1.7,0,2.6c-0.1,0.6-0.3,1.1-0.6,1.6c-0.3,0.5-0.8,0.9-1.4,0.9"/>
		<path class="st6" d="M204,49.4c0.1,0.4,0,0.8-0.1,1.1c-0.2,0.7-0.5,1.4-1,1.9c-0.5,0.6-1.1,1-1.8,1.1"/>
		<path class="st6" d="M198.5,42.3c-0.4,1.3-1.4,2.3-2.6,2.8"/>
		<path class="st6" d="M198.3,44.2c-0.3,0.6-0.9,1.1-1.5,1.4"/>
		<path class="st6" d="M200.1,41.1c0.1,0.5,0,1-0.2,1.4"/>
		<path class="st6" d="M202.8,42.8c0.9-0.9,2.2-1.4,3.5-1.3"/>
		<path class="st6" d="M203.1,41.9c0.4-0.3,0.9-0.6,1.4-0.8c0.5-0.2,1-0.3,1.5-0.2"/>
		<path class="st6" d="M203.9,40.8c0.2-0.3,0.6-0.4,0.9-0.3"/>
		<path class="st6" d="M207.7,67.5c0.7,0.3,1.4,0.5,2.1,0.8c0.4,0.1,0.7,0.3,1.1,0.5c1.8,1.3,1.1,4.4,2.8,5.8
			c0.7,0.6,1.4,0.5,2.2,0.8c0.7,0.2,0.8,0.7,1.2,1.2"/>
		<path class="st6" d="M216.9,75.8c-0.4-1.8-0.8-3.5-1.2-5.3c-0.1-0.5-0.2-1-0.4-1.5c-0.7-1.5-2.1-2.6-2.8-4.1"/>
		<path class="st6" d="M215.2,68.6c-0.3-1-1-1.7-1.2-2.7c-0.1-0.6-0.1-1.3-0.2-1.9"/>
		<path class="st6" d="M215.3,69.1c-0.5-2.2-0.5-4.6,0-6.8"/>
		<path class="st6" d="M216.1,65.5c-0.1-0.3-0.1-0.7,0-1.1c0.4-2,1-4.2,0.4-6.2"/>
		<path class="st6" d="M217.5,58.2c0.1,1.2,0.2,2.4,0.3,3.6"/>
		<path class="st6" d="M220.2,61.8c1.1,4.4,1.5,9,0.9,13.5c-0.1,1.1-0.4,2.2-0.2,3.4c0.1,0.5,0.2,0.9,0.2,1.4c0,0.5-0.3,1-0.8,1.1"
			/>
		<path class="st6" d="M219.2,79.5c0.2,0.4,0.5,0.7,0.8,1c0.1,0.1,0.2,0.1,0.4,0.1c0.1,0,0.3-0.1,0.2-0.3"/>
		<path class="st6" d="M219.6,79c0.2,0.4,0.7,0.8,1.1,0.9c0-0.1,0-0.2,0-0.2"/>
		<path class="st6" d="M220,78.4c0.2,0.1,0.3,0.3,0.5,0.4"/>
		<path class="st6" d="M219.3,81.8c0,0.8,0.3,1.6,0.9,2.2c0.3,0.3,0.8,0.6,1.2,0.4c0.1-0.1,0.2-0.2,0.4-0.2c0.2-0.1,0.4,0,0.6,0.1
			c0.2,0.1,0.3,0.3,0.4,0.4"/>
		<path class="st6" d="M220.1,82.5c0,0.7,0.3,1.3,0.9,1.7c0-0.1,0.1-0.1,0.1-0.2"/>
		<path class="st6" d="M221.5,83.2c0.2,0.3,0.3,0.6,0.5,1"/>
		<path class="st6" d="M224.9,82.3c-0.4-0.7-0.5-1.4-0.4-2.2c0.1-0.8,0.3-1.5,0.5-2.2"/>
		<path class="st6" d="M225.4,79.1c0.1-0.6,0.3-1.2,0.4-1.9c0.1-0.7,0.3-1.3,0.3-2c0-0.7-0.2-1.3-0.3-2c-0.4-2.2-0.5-4.4-0.2-6.6"/>
		<path class="st6" d="M225.8,71.6c0.2-1.7,1.4-3.3,1.4-5c0-1.1-0.4-2.1-0.2-3.2c0.1-0.4,0.2-0.8,0.3-1.2c0.3-1.2,0.1-2.6-0.6-3.6"
			/>
		<path class="st6" d="M226.9,79.1c-0.1-1.4,0.6-2.7,1.2-3.9c1.2-2.6,2-5.4,2.1-8.3c0-0.4,0-0.8,0.2-1.2c0.1-0.2,0.2-0.5,0.3-0.7
			c1-1.9,1-4.2,0-6.1"/>
		<path class="st6" d="M208,82.8c-0.2-0.5-0.3-1.1-0.2-1.6c0.1-0.4,0.3-0.8,0.6-1.2c0.2-0.2,0.4-0.5,0.7-0.6c0.9-0.6,2.1-0.2,3-0.7"
			/>
		<path class="st6" d="M202.1,80.4c0,0.5,0.1,1,0.3,1.4c0.1,0.2,0.2,0.3,0.3,0.4c0.1,0.1,0.3,0.1,0.4,0.2c0.3,0.2,0.3,0.5,0.4,0.8
			c0.3,1.4,1,2.8,2.1,3.7"/>
		<path class="st6" d="M209,84.7c0.7,0.9,0.8,2.2,0.2,3.1c-0.3,0.4-0.6,0.7-0.7,1.2c0,0.2,0,0.4,0,0.6c0.1,1.3,0.1,2.6,0.2,3.8"/>
		<path class="st6" d="M205.3,88.6c0,0.4,0.2,0.8,0.4,1.1c0.7,1.4,1.2,2.8,1.5,4.3"/>
		<path class="st6" d="M207.6,96.6c0.2,0.9-0.2,1.8-0.2,2.7c0,0.2,0,0.4,0,0.6c0,0.2-0.1,0.3-0.2,0.5c-0.2,0.4-0.2,0.9,0,1.3"/>
		<path class="st6" d="M204.7,101.4c-1.2,0.6-1.7,2.1-3,2.6c-0.3,0.1-0.6,0.2-0.9,0.2c-0.7,0.1-1.4,0.3-2-0.1"/>
		<path class="st6" d="M193.9,107c0.4-0.5,0.9-0.8,1.4-1.1c0.4-0.2,0.8-0.4,1.2-0.3"/>
		<path class="st6" d="M195.2,106.3c0.4,0.2,0.7,0.7,0.7,1.1"/>
		<path class="st6" d="M193,105.6c0.4,0.2,0.8,0.5,1,0.9"/>
		<path class="st6" d="M226.9,107.4c0.4-0.9,1.4-1.6,2.4-1.7"/>
		<path class="st6" d="M226,105.5c0.5,0.2,0.9,0.6,1.1,1.1"/>
		<path class="st6" d="M228.1,106.6c0.3,0.4,0.5,0.9,0.5,1.4"/>
		<path class="st6" d="M232.6,107.8c-0.3-0.7,0.1-1.6,0.8-1.9c0.2-0.1,0.5-0.1,0.7-0.3c0.1-0.1,0.2-0.3,0.3-0.5
			c0.6-1.9,0.9-3.9,0.7-5.9"/>
		<path class="st6" d="M234.1,99.3c-0.1,0.7-0.3,1.4-0.4,2.2c-0.1,0.4-0.1,0.7-0.3,1.1c-0.1,0.4-0.3,0.8-0.5,1.2
			c-0.3,0.6-0.6,1.2-1.1,1.6"/>
		<path class="st6" d="M226.1,83c1.6,0.9,3.2,1.8,4.5,3c1.4,1.2,2.5,2.7,3,4.4"/>
		<path class="st6" d="M230.2,83c0.5,0.7,0.7,1.5,0.5,2.3"/>
		<path class="st6" d="M231.7,84.3c0.1,0.5,0.1,0.9,0,1.4"/>
		<path class="st6" d="M232.2,85.1c0.1,0.4,0.1,0.7-0.1,1.1"/>
		<path class="st6" d="M232.5,86.3c0,0.1-0.1,0.2-0.1,0.3"/>
		<path class="st6" d="M229.7,83.1c0.1,0.4,0.1,0.8,0.2,1.2"/>
		<path class="st6" d="M225.9,87c0.4,0.6,0.8,1.1,1.4,1.4c1.6,1.2,3.8,1.4,5.2,2.8c0.4,0.4,0.8,1,1.4,1.1"/>
		<path class="st6" d="M230.3,88c0.2,0.6-0.2,1.2-0.7,1.4"/>
		<path class="st6" d="M231.1,88.6c-0.1,0.3-0.2,0.5-0.4,0.7c-0.2,0.2-0.5,0.4-0.7,0.3"/>
		<path class="st6" d="M231.9,89.5c-0.2,0.1-0.3,0.3-0.4,0.5c-0.1,0.2-0.3,0.3-0.5,0.3c0-0.1,0-0.2,0-0.2"/>
		<path class="st6" d="M232.5,90.8c-0.1,0.1-0.1,0.1-0.2,0.2"/>
		<path class="st6" d="M233,91.3c0,0,0,0.1,0,0.1"/>
		<path class="st6" d="M231.1,92.4c0.6,0.5,1.3,0.9,1.9,1.4c0.2,0.1,0.4,0.3,0.5,0.5c0.4,0.5,0.6,1.1,0.7,1.7"/>
		<path class="st6" d="M234.4,94.2c0.2,0.8,0.9,1.4,1.7,1.5"/>
		<path class="st6" d="M236,93.9c0.4,0.2,0.8,0.5,0.9,1c0.1,0.4,0.1,0.9-0.2,1.3"/>
		<path class="st6" d="M232.8,68c2.9,2.5,5.2,5.8,6.6,9.4c0.3,0.7,0.5,1.5,0.6,2.2c0.1,0.8,0.1,1.6,0.2,2.4c0.2,1.1,0.7,2.2,1.2,3.2
			"/>
		<path class="st6" d="M236,63.7c0.5,1.5,0.7,3.1,0.5,4.6"/>
		<path class="st6" d="M236.9,64.9c0.4,0.8,0.8,1.8,0.5,2.6"/>
		<path class="st6" d="M238,66.1c0.4,0.7,0.3,1.6-0.2,2.2"/>
		<path class="st6" d="M238.8,67.4c0.2,0.2,0.1,0.6,0,0.8c-0.2,0.4-0.5,0.8-0.8,1"/>
		<path class="st6" d="M239.3,68.2c0.1,0.6-0.2,1.3-0.7,1.6"/>
		<path class="st6" d="M239.6,69.8c0,0.3-0.1,0.5-0.3,0.7"/>
		<path class="st6" d="M240,70.4c-0.1,0.3-0.2,0.7-0.5,0.9"/>
		<path class="st6" d="M229.1,75.8c0.6,0.1,1.2,0.4,1.7,0.8c1.5,1.1,2.8,2.4,3.8,4"/>
		<path class="st6" d="M228.2,76.8C228.1,76.8,228.1,76.8,228.2,76.8C228.1,76.7,228.2,76.7,228.2,76.8c0.7,0,1.3,0.3,1.6,0.9"/>
		<path class="st6" d="M251.3,100.2c0-0.1,0-0.2,0-0.4"/>
		<path class="st6" d="M252,100.3c0.3,0.2,0.5,0.5,0.7,0.8c0.1,0.2,0.1,0.4,0.1,0.7c-0.1,0.2-0.2,0.4-0.5,0.4"/>
		<path class="st6" d="M253,100.9c0.2,0.4,0.3,0.8,0.2,1.2"/>
		<path class="st6" d="M254.1,101c0.2,0,0.2,0.3,0.2,0.5"/>
		<path class="st6" d="M255,101.2c0,0.1,0,0.2,0,0.3"/>
	</g>
	<g>
		<path class="st5" d="M285.6,85.6c0,0-1.9-1.6-1.5-3c0.4-1.4,2.8-3.1,4.6-3.8c1.8-0.7,4.4-1.8,4.8-2c0.3-0.1,4.2-1.4,7-0.1
			c2.8,1.2,4.6,2.6,5.2,4.8c0.7,2.2,1.9,4.7,2.3,5.8c0.4,1.1,1.6,2.8,2.3,3.1c0.7,0.3,5.6,1,7.7,2.3s13.4,7,16.5,8.4
			c3.1,1.4,9.6,6.3,11,6.8c1.4,0.5,6.4,5.1,8.1,6.7c1.7,1.6,10.5,10.8,13.5,13.9c3,3.1,19.4,12.9,23.6,15.5c4.2,2.6,11.8,5,29.9,6.1
			c0.3,0,3.1,0.7-0.1,1.7c-3.2,1-28.7,2-42.7-2.4c-14-4.4-22.7-6-24.2-6c-1.6,0-3.2-0.3-3.7,0.5c-0.5,0.8,0,1.4,0.8,2.5
			c0.9,1.1,2.1,1.9,2.2,3.2c0.1,1.2,0,1.2,0,2.6c0.1,1.4,0.1,2.3,0.4,3.5c0.3,1.2,0.7,2-0.2,3c-0.9,1-0.9,1.7-1.5,2.1
			c-0.5,0.4-1,0.5-1.4,0.9c-0.4,0.4-1.3,1.4-1.3,1.1c0-0.3,0-1.7,0-1.7s-1.6,0.5-1.9,0.4c-0.3-0.1-1.3,1-1.3,1s-0.8-1.5-0.4-2
			c0.3-0.5,0.5-1.5,1.1-2.1c0.6-0.6,0.8-1.3,1.4-2.2c0.5-0.9,0.4-2.4,0.1-3.2c-0.4-0.8-4.6-5.1-5.4-6.1c-0.8-1-4.3-4.8-4.3-4.8
			l-7.3-2.7c0,0,0.3,5.1,0.2,6.5c0,1.4,0.3,1.6,0.7,2.5c0.4,0.9,1,1.3,0.5,2.1c-0.5,0.8-0.7,1.1-1,2c-0.3,0.9-0.1,1.9-0.2,2.7
			c-0.1,0.8,0.2,1.6-0.7,2.4s-1.6,1.2-2.1,1.4c-0.4,0.1-0.9,0.6-1.3,1.3c-0.4,0.7-2.6,0.6-2.6,0.6l0.1-1.9c0,0-0.7-0.6-1.4,0.1
			c-0.6,0.7-2.4,1.6-2.4,1.6s0-2.5,0.9-3.2c0.9-0.7,2.2-1.6,3.2-2.2c1-0.6,2.2-1.4,2.4-2.4c0.2-1-0.2-3.4-1-5.4
			c-0.8-2-2.4-6.5-3.1-7.9c-0.8-1.4-1.1-4.5-0.9-5.9c-0.1-0.2-5.2-7.8-3.8-5.2c0.2,0.4-2.5-4.5-3.6-5.4c-0.9-0.7-4.9-5.5-4.9-5.5
			s-2.8,0.8-3.7,1.7c-0.9,0.8-1.4,1.7-1.6,2.5c-0.2,0.8-0.5,3-0.5,3l-0.9-2.6c0,0-1.7,1.7-2.7,2.3c-1,0.6,0.2-1.3,0.2-1.3l-1.5,0.9
			c0,0-0.6,0.9-1.8,1.8c-1.2,0.9-2,2-2,1.2c0.1-0.8-0.6-2-0.6-2s-1.1,1-0.9,0c0.2-0.9,1.6-3.8,1.6-3.8s0.4-1.3,0.2-1.9
			c-0.1-0.7-0.7-3-0.7-3s1,2.1,2.1,2c1.1-0.1,2,0.1,2.9-0.5c0.9-0.6,1.5-2,1.5-2l-1-2.4c0,0,1.2,2.1,2.1,1.5c0.9-0.6,1.4-0.9,2-1.4
			c0.5-0.5,1.4-0.8-0.1-1.7c-1.5-0.9-4.3-4.3-5-5.3c-0.7-1-0.8-2.2-0.9-3.2s0.1-3.6,0-4.6s-0.9-1.7-1.5-2.2c-0.6-0.5-1-1.5-1.2-2.7
			s-0.1-1.2-1.1-1.9c-1.1-0.6-0.5-0.3-1.5-1.7c-1-1.4-0.8-2.5-1.2-3.3c-0.4-0.9-0.6-1.3-1.4-1.4c-0.8-0.1-1.8-0.4-2.2-0.3
			c-0.3,0-1.6,0.5-1.6,0.5L285.6,85.6z"/>
		<path class="st7" d="M309.5,117.1c0.4,0.3,0.8,0,1.3-0.1c2.1-0.9,4.1-2,5.8-3.4c0.7-0.6,1.5-1.4,1.4-2.4c0-0.5-0.3-1-0.7-1.4
			c-0.7-1-1.5-1.9-2.4-2.6c-0.4-0.4-0.9-0.7-1.2-1.2c-0.4-0.7-0.5-1.6-0.1-2.3c0,0-1-3.1-2.5-3.8c-1.4-0.7-7.2,1.8-7.5,3.6
			s0.9,4.2,2.6,5.2c1.7,1,3.8,1.5,3.7,2.3c-0.1,0.8-1.8,1.6-2.3,2.1c-0.6,0.6-1.8-0.3-1.8-0.3l-4.2,3c0,0-1.2,2.7-2,2.5
			c-0.9-0.2-2.9,0.4-3.4,0s-1.6-2.5-1.1-1c0.4,1.3,0.6,3.2,0.4,3.7c-0.1,0.5-1.4,2.2-1.5,3.6c-0.1,1,0.9,0.3,0.9,0.3
			s0.1,0.6,0.2,1.4c0.2,0.9,0.6,1.1,1,0.7c1-0.9,3.2-2.9,3.6-3.1c0.4-0.2,0.1,1.2,0.6,0.9c0.4-0.3,2.8-2.8,2.8-2.8l1,2.6
			c0,0,0.5-3.4,1.1-4.1c0.6-0.7,0.4-1.4,1.5-1.7c1.1-0.3,0,0,0,0L309.5,117.1"/>
		<path class="st6" d="M303.9,105.8c0,0,0,0.8,1.7,2.2c1.7,1.4,3,1.9,4,2.5s0.4,1.2-1,1.9s-2,1.1-2.9,1.7c-0.9,0.6-0.9,0.7-1.6,1.2
			s-1.5,0.3-1.5,0.3"/>
		<path class="st6" d="M291.2,85.7c1.4-0.1,2.7-0.1,4.1,0c0.8,0.1,1.8,0.2,2.5-0.3c0.4-0.3,0.7-0.9,0.7-1.4c0-0.5-0.2-1.1-0.5-1.5"
			/>
		<path class="st6" d="M294,82.6c-0.6,0.2-1.3,0.3-2,0.2c-1-0.1-2.1-0.6-3.1-0.4c-0.5,0.1-0.9,0.4-1.4,0.7c-0.7,0.4-1.5,0.7-2.2,0.9
			c-0.2,0-0.4,0-0.4-0.2"/>
		<path class="st6" d="M285.4,81.6c0.1,0.1,0.1,0.3,0,0.5c-0.1,0.2-0.2,0.3-0.2,0.5c0,0.2,0.3,0.2,0.4,0.1"/>
		<path class="st6" d="M294.9,84.4c0.2,0,0.4,0,0.7,0c0.5,0,1-0.1,1.4-0.3c0.4-0.3,0.6-0.9,0.2-1.2"/>
		<path class="st6" d="M294.1,79.3c-0.6-0.2-1.3-0.3-1.9-0.2"/>
		<path class="st6" d="M292.1,79.6c0.5,0.2,1,0.4,1.5,0.4c0.5,0,1.1-0.3,1.2-0.8"/>
		<path class="st6" d="M295.5,78.8c0.6,0.6,1.1,1.1,1.7,1.7"/>
		<path class="st6" d="M299.1,83.7c0.1,0.8,0,1.7-0.3,2.5c-0.3,0.7-0.6,1.3-0.9,2c-0.3,0.7-0.4,1.4-0.1,2.1"/>
		<path class="st6" d="M296.7,88c-0.3,1.5,0,3.2,0.2,4.7c0.1,0.5,0.2,1,0.3,1.5c0.1,0.5,0.2,1,0.5,1.5"/>
		<path class="st6" d="M303.7,95.6c1.5-0.6,2.5-1.6,3.8-2.4c0.4-0.3,1-0.3,1.4-0.5c0.7-0.4,1-1.2,1.4-1.8"/>
		<path class="st6" d="M354.8,125.3c0.2,0.6,0.1,1.3-0.1,2c-0.7,3.2-2.6,6.1-5.2,8.1c-0.5,0.4-1.1,0.8-1.4,1.4
			c-0.4,0.7-0.3,1.5-0.3,2.2c0.2,1.8,0.7,3.6,1.4,5.2"/>
		<path class="st6" d="M337.9,141.1c-1.9-2-3.7-4.4-3.9-7.2c-0.3-3.1,1.4-6.2,0.8-9.3c-0.2-0.9-0.6-1.9-0.5-2.8
			c0-0.9,0.5-1.7,0.9-2.5c0.8-1.4,1.5-2.8,2.8-3.9"/>
		<path class="st6" d="M336.6,112.8c-0.4,1-0.9,1.9-1.2,2.9c-0.2,0.6-0.3,1.1-0.4,1.7c-0.2,0.8-0.3,1.7-0.5,2.5
			c-0.2,0.8-0.3,1.6-0.3,2.4"/>
		<path class="st6" d="M334.9,112.9c-1.9,3.7-2.1,8.2-0.5,12"/>
		<path class="st6" d="M348.5,121.5c0,0.1-0.1,0.1-0.1,0.2c1.2,1.9,0.5,4.3-0.5,6.3c-0.4,0.7-0.8,1.4-1.3,2
			c-0.4,0.4-0.8,0.7-1.2,1.2c-1.2,1.5-1,3.7-0.6,5.6"/>
		<path class="st6" d="M345.7,133.3c0-0.6,0.4-1.2,0.9-1.6c0.5-0.4,1.1-0.7,1.6-1c0.8-0.4,1.5-1,2-1.7c0.5-0.7,0.8-1.7,0.6-2.5"/>
		<path class="st6" d="M348.4,125.9c1.2-0.2,2.2-1.3,2.3-2.5"/>
		<path class="st6" d="M324.7,159.1c-0.1-0.6,0.4-1.1,0.8-1.5c0.5-0.4,1-0.7,1.2-1.3"/>
		<path class="st6" d="M326.3,158.5c-0.1,0,0-0.1,0-0.1c0.5-0.1,1.2,0.3,1.2,0.8"/>
		<path class="st6" d="M327.5,157.2c0.6,0.1,1.2,0.7,1.2,1.3c0,0.1,0,0.1-0.1,0.2c-0.1,0-0.1-0.1,0-0.1"/>
		<path class="st6" d="M328.6,155.8c0.7,0.3,1.3,0.8,1.7,1.5"/>
		<path class="st6" d="M349.1,161.2c0-1.3,0.5-2.6,1.5-3.4"/>
		<path class="st6" d="M350.6,159.4c0.5,0,1,0.3,1.2,0.7"/>
		<path class="st6" d="M351.6,158.2c0.6,0.1,1.1,0.6,1.1,1.2"/>
		<path class="st6" d="M351.1,155.8c0.9-0.1,1.8,0.4,2.1,1.2"/>
		<path class="st6" d="M350.4,143.4c-0.8-1.4-0.6-3.4,0.5-4.6"/>
		<path class="st6" d="M351.9,143.7c0-1.2,0.2-2.3,0.7-3.4"/>
		<path class="st6" d="M351.2,143.6c0,0.1,0,0.2-0.1,0.2c0-1.1,0.1-2.2,0.4-3.2"/>
		<path class="st6" d="M352.9,143.9c0.1-0.9,0.3-1.9,0.8-2.7"/>
		<path class="st6" d="M357.7,138.3c0.5-1,1.3-1.8,2.3-2.2"/>
		<path class="st6" d="M359.3,138.9c0.4-1.1,1.3-2,2.4-2.5"/>
		<path class="st6" d="M374,133.8c-0.9,1.1-1.6,2.4-2,3.7"/>
		<path class="st6" d="M375.9,134.6c-0.1,0.8-0.4,1.6-0.9,2.3"/>
		<path class="st6" d="M378.5,136.3c0.2,0.6,0.1,1.4-0.4,1.9"/>
		<path class="st6" d="M351.3,117.9c1.3,0.9,2.2,2.5,2.2,4.1"/>
		<path class="st6" d="M340.8,112.5c0.5-0.3,1.1-0.4,1.7-0.4c0.4,0,0.7,0,1.1,0.1c1.1,0.2,1.8,1.2,2.9,1.5"/>
		<path class="st6" d="M336.8,109.8c3.1-0.7,6.4-0.1,9,1.6c0.5,0.3,1,0.8,1.1,1.4"/>
		<path class="st6" d="M336.2,109.2c0.2-0.4,0.7-0.6,1.2-0.8c1.2-0.4,2.5-0.3,3.7,0.2"/>
		<path class="st6" d="M320,112c1-0.3,2.1-0.1,3.2-0.1c1.1,0,2.3-0.2,2.9-1.1"/>
		<path class="st6" d="M313.7,103.5c-0.4,0.7-0.4,1.6,0.1,2.3c0.3,0.5,0.8,0.8,1.2,1.2c0.9,0.8,1.7,1.7,2.4,2.6
			c0.3,0.4,0.6,0.9,0.7,1.4c0.1,1-0.7,1.8-1.4,2.4c-1.8,1.4-3.7,2.6-5.8,3.4c-0.5,0.2-1,0.3-1.4,0.1"/>
		<path class="st6" d="M306.7,110.9c-0.1,0.5-0.1,1,0,1.5"/>
		<path class="st6" d="M305,111.2c0.4,0.8,1.1,1.5,1.9,1.9"/>
		<path class="st6" d="M307.8,110.7c0,0.3-0.1,0.6-0.1,0.9"/>
		<path class="st6" d="M314.5,106.3c0.9-1.1,1.7-2.4,2.4-3.7"/>
		<path class="st6" d="M314.6,106.9c1.2-1.2,2.3-2.5,3.2-3.9"/>
		<path class="st6" d="M315.3,107.3c1.6-0.8,2.9-2,4.1-3.3"/>
		<path class="st6" d="M312.3,100.7c0.6,1.4,1,2.9,1.2,4.4"/>
		<path class="st6" d="M313.1,100.6c0.2-0.1,0.3,0.1,0.4,0.3c0.7,1.5,0.7,3.2,0.3,4.8"/>
		<path class="st6" d="M361.7,142.6c-0.1,0.5-0.2,1.1-0.2,1.6c0,0.1,0.1,0.3,0.2,0.2"/>
		<path class="st6" d="M359.8,142.2c-0.2,0.5-0.3,1-0.4,1.5"/>
		<path class="st6" d="M361.1,142.4c-0.2,0.3-0.3,0.6-0.2,0.9c0-0.3,0.1-0.5,0.1-0.8"/>
		<path class="st6" d="M363.9,142.6c-0.3,0.3-0.5,0.8-0.3,1.2"/>
		<path class="st6" d="M365.9,143.7c0.1,0.5,0.4,0.9,0.7,1.3"/>
		<path class="st6" d="M363.1,142.7c-0.2,0.1-0.2,0.3-0.2,0.5C363,143,363,142.9,363.1,142.7"/>
		<path class="st6" d="M365.5,144.2c-0.1,0.3-0.1,0.5,0,0.8"/>
		<path class="st6" d="M368.1,144.6c0.1,0.4,0.4,0.8,0.8,0.9"/>
		<path class="st6" d="M370.7,145.1c0.2,0.6,0.7,1.1,1.3,1.3"/>
		<path class="st6" d="M374.2,146c-0.1,0.2-0.2,0.4-0.1,0.6"/>
		<path class="st6" d="M376.5,147.1c0,0.1,0,0.2,0,0.4c0.1,0.1,0.2,0.1,0.4,0.1"/>
		<path class="st6" d="M378.8,147.4c0.1,0.1,0.1,0.2,0.2,0.3"/>
		<path class="st6" d="M381.3,148.3c0.1,0,0.1,0,0.2,0"/>
		<path class="st6" d="M299.6,118.5c-1.2,1-2.3,2.2-3.1,3.6c1.1,0.3,2-1.1,3.1-1c-0.8,1-1.6,2-2.4,3c1-0.3,1.9-1.2,3-1.1
			c0,0.4,0.1,0.7,0,1.1"/>
		<path class="st6" d="M302.4,105.8c0.4,0.5,0.8,1.1,1.2,1.6c0.5,0.7,1.1,1.5,1.9,1.9c0.8,0.5,1.8,0.7,2.6,0.2"/>
		<path class="st6" d="M306,116.8c0.1,0.6,0.1,1.3,0,1.9"/>
		<path class="st6" d="M307.1,116.9c0.1,0.6,0,1.2-0.2,1.7"/>
		<path class="st6" d="M308.2,116.3c0,0.4,0,0.8,0,1.2"/>
		<path class="st6" d="M309.1,116.2c0.2,0.4,0.2,0.8,0.2,1.2"/>
		<path class="st6" d="M310.2,116.6c0,0.1,0,0.2,0,0.3"/>
		<path class="st6" d="M311.3,117.3c0,0.9,0.3,1.8,0.8,2.5"/>
		<path class="st6" d="M327.4,136.9c1,1.1,2.3,1.9,3.6,2.4c0.1,0,0.3-0.1,0.2-0.1"/>
		<path class="st6" d="M322.6,129.6c0.7,1.4,1.5,2.8,2.7,3.9c0.3,0.3,0.7,0.6,1,0.9c0.3,0.3,0.6,0.5,1,0.8c1.3,1.1,2.6,2.2,4,3.3
			c0.5,0.4,1.1,0.9,1.7,0.9"/>
		<path class="st6" d="M334.5,140.6c0.5-0.6,0.8-1.4,0.8-2.3"/>
		<path class="st6" d="M336.3,139.3c-0.2,0.6-0.4,1.2-0.7,1.8"/>
		<path class="st6" d="M334.3,136.6c0.1,0.5-0.2,1-0.5,1.5"/>
		<path class="st6" d="M332.5,135c-0.1,0.4-0.1,0.7-0.2,1.1"/>
		<path class="st6" d="M329.1,134c0,0.3,0,0.5,0,0.8C329.1,134.5,329.1,134.2,329.1,134"/>
		<path class="st6" d="M330.9,131.1c0.1,0.2,0.2,0.4,0.3,0.7"/>
		<path class="st6" d="M332.8,130.2c0,0.2,0,0.4,0,0.7C332.8,130.6,332.8,130.4,332.8,130.2"/>
		<path class="st6" d="M330.1,119.8c1,3.3,2.6,6.4,4.7,9.1"/>
		<path class="st6" d="M330.7,124.9c0.9,1.8,2,3.6,3.4,5.1c0.1,0.1,0.2,0.2,0.3,0.1c0.1-0.1-0.1-0.2-0.1-0.1"/>
		<path class="st6" d="M355.6,129.6c-1.3,3.2-3.8,5.8-6.8,7.4c-0.4,0.2-0.9,0.4-1.1,0.9"/>
		<path class="st6" d="M383.3,146.6c-0.1,0.8,0,1.6,0.4,2.4"/>
		<path class="st6" d="M385.3,146.3c0,0.9-0.1,1.7-0.1,2.6"/>
		<path class="st6" d="M386.9,148.3c0,0.4,0,0.7,0.1,1.1"/>
		<path class="st6" d="M389.4,149.6c0,0.3,0,0.6,0.2,0.9"/>
		<path class="st6" d="M391.4,149.2c0,0.5,0.2,1,0.5,1.4"/>
		<path class="st6" d="M392.8,149.8c0,0.3,0.1,0.6,0.4,0.7"/>
		<path class="st6" d="M394.7,151c0,0.1,0.1,0.3,0.1,0.4"/>
		<path class="st6" d="M397,150.8c0,0,0,0.1,0,0.1"/>
		<path class="st6" d="M293.3,78.7c0.5-0.2,1,0.1,1.4,0.5"/>
	</g>
	<path class="st8" d="M123.5,79.2c0,0,0.4,15.2-14,21.8"/>
</g>
<path class="st8" d="M337.6,79.2c0,0-3,22.2-20.3,30.5"/>
</svg>
