<svg id="Layer_1" data-name="Layer 1" xmlns="http://www.w3.org/2000/svg" xmlns:xlink="http://www.w3.org/1999/xlink" viewBox="0 0 392.81 663.81"><defs><style>.cls-1,.cls-10{fill:#c0e1ef;}.cls-2{fill:url(#Degradado_sin_nombre);}.cls-3{fill:url(#Degradado_sin_nombre_2);}.cls-4{opacity:0.5;}.cls-5{fill:#5db6e6;}.cls-5,.cls-6{stroke:#192d37;stroke-miterlimit:10;}.cls-11,.cls-6,.cls-7,.cls-8{fill:none;}.cls-6,.cls-8{stroke-width:0.35px;}.cls-7,.cls-8{stroke:#5db6e6;stroke-linecap:round;stroke-linejoin:round;}.cls-9{fill:#82c5df;}.cls-10,.cls-9{opacity:0.41;}.cls-10,.cls-14,.cls-15,.cls-16,.cls-9{isolation:isolate;}.cls-12{fill:url(#Degradado_sin_nombre_3);}.cls-13{fill:url(#Degradado_sin_nombre_4);}.cls-15{font-size:15px;}.cls-15,.cls-16{font-family:ArialMT, Arial;}.cls-16{font-size:21.18px;}.cls-17{fill:url(#Degradado_sin_nombre_5);}</style><linearGradient id="Degradado_sin_nombre" x1="-821.44" y1="198.93" x2="-753.08" y2="198.93" gradientTransform="translate(-744.18 689.72) rotate(180)" gradientUnits="userSpaceOnUse"><stop offset="0" stop-color="#fff" stop-opacity="0"/><stop offset="0.89" stop-color="#fff"/></linearGradient><linearGradient id="Degradado_sin_nombre_2" x1="-349.25" y1="201.99" x2="-327.75" y2="201.99" gradientTransform="matrix(0, -1, -1, 0, 393.32, 55.56)" xlink:href="#Degradado_sin_nombre"/><radialGradient id="Degradado_sin_nombre_3" cx="278.1" cy="164.77" r="98.94" gradientTransform="matrix(1, 0, 0, -1, -24.3, 551.83)" gradientUnits="userSpaceOnUse"><stop offset="0" stop-color="#fff"/><stop offset="0.79" stop-color="#fff" stop-opacity="0"/></radialGradient><linearGradient id="Degradado_sin_nombre_4" x1="321.53" y1="198.93" x2="389.9" y2="198.93" gradientTransform="matrix(1, 0, 0, -1, -24.3, 689.72)" xlink:href="#Degradado_sin_nombre"/><radialGradient id="Degradado_sin_nombre_5" cx="278.12" cy="303.07" r="98.93" gradientTransform="matrix(1, 0, 0, -1, -24.3, 689.72)" xlink:href="#Degradado_sin_nombre_3"/></defs><rect class="cls-1" x="13.9" y="385.06" width="348" height="192.91"/><polygon class="cls-2" points="8.9 630.99 77.27 630.99 77.27 350.59 8.9 350.59 8.9 630.99"/><polygon class="cls-3" points="382.67 383.31 382.67 404.81 0 404.81 0 383.31 382.67 383.31"/><g class="cls-4"><path class="cls-5" d="M149.1,495.7s-.4,2.9-1.1,3.5-2.6,1-3.6,2.7-2.6,3.5-1.8,4.5.2,1.5,2.1-.8,1.1.7,1.4,1.6.2,2.7,1.2.1,1.8-6.2,2-4-.4,3.5.2,4.3.9-2.2,1.7-3.4,1,1.9,1.3,2.8,1.1,1.5,1.4-1.9-.5-2.6,0-4.6,1.2-3.6,1.2-3.6l.1-2.2-5.6-1.8Z" transform="translate(-24.3 -14.14)"/><path class="cls-5" d="M78.8,460.1a3.7,3.7,0,0,1,1.4-2.7,12,12,0,0,0,2.8-2.1c1.4-1.3,2.7-2.1,3.7-1.7s.8-.3,2.8-.8,2.6-1,3.4-.4,1.9-1,2.9-.3,2.2,0,2.9.3a6.88,6.88,0,0,0,2.5.2c.8,0,2.3-1.2,3.1-.6a26.34,26.34,0,0,0,2.4,1.2c.4.3,2.5-.7,2.9-.2s1.7.2,2.3.8,1.3-.2,2.8.1a20.77,20.77,0,0,0,3,.5c1.8.2,2.8.8,4.1.7s3.3.2,3.9.1.2-.1,1.4-1.3,2.2-2.4,2.6-1.2-.1,1.7,1.3,1.4a10.47,10.47,0,0,1,2.7-.2,3.81,3.81,0,0,1-.1-1.6c.1-1.1.8-1.4,1.5-1.2s-.5.2-.9-1.5-1.6-2.9-.2-2.7,1.9,1.4,2.3,1.6.6-1.1,1.2-2.1,1.4-1.6,1.7-.4.7,2.8.7,2.8,1.3-1.5,1.9-2.1,1.6-1.4,1.5-.2-.5,2.4-.5,2.9.8,0,1.4-.8.2-1.5.6-.8.2,1.8.7,1.7,2.6,1.2,2.5.2a7.07,7.07,0,0,1-.1-3.3c.5-1.5,1.4-2.1,1.6-.9s2.6-2.7,3.8-1.1a7.08,7.08,0,0,1,1.3,3.3s2-2.9,2.7-1.5,0,2.4.4,2.8,2.6-3.2,3-2,.2,1.9.6,2.3,1.6-2.3,2.1-1.9,0,.9.3,1.5,0,1.4,1.8.2,3.4-2.6,3.5-1.6a13.16,13.16,0,0,1-.5,3.2s2.8-3.3,2.8-1.9a8.54,8.54,0,0,0,.1,2.5c.2.6,3.8-.6,2.6.5s-2.5,2.1-2.9,2.5-1.2,1.2-.3,1.4.8,2.8,1.8.5,2-4.8,2.1-3.3-.3,1.5,1.2.9,3.5-1,2.8,0,3.1-.3,1.1,1.5-3.7,2-2.9,2.4,3.2.5,2,1.7,2.4,2.2,2.2.9-1-4.3.3-4.3,1.3,1.1,1.7,1.8.5-1.5,1.8-1,2.1-.2,1.3,1.4,0,1.4,1.6,2.2,1.2,1-.7,1.7-1.1.9-.2,1.7,1.7,3.8,2.1,1.9,1.7-4.4,1.8-2.7-1,2.5,1,2.1,4.2-1.4,2.7-.1-3.1,2-2.1,2.2,1.5-.3,2,.4-.1,1.2-.7,1.6,3,2.4,4.1,2,3.3.7,2.2,1.4-2.3,1.2-1,1.7,4.3,0,3.4.9-1.4,1.4-.6,1.9,2.9.9,2.4,1.9.5,2.3.5,2.3a7.4,7.4,0,0,0,2.4,2.2c1.3.6,2.6,1.2,2,1.8s.5.6,1.2,2.5,1.4,2.5.8,3.5.1.3.6,2.2.4.2,2.7,1.2,2.8.8,3.1,1.8,1,1,2,2.5-.3,1.5,2.5,1,2.8-.8,3.8.5,1.5,1.6,1.3,2.8-.6,1.9,1.7,1.5,2.4-1.5,3,.2.9,3.8,1.8,3.2,3.1-2.6,4-1,2.3,1.6,3.5,2.9,1.2,1,3.4,1.5,3.2.3,2.9,1.7.6,1.5,2.8,1.4,3.3.2,3.5.7.1,1.9,2.5,1.3,4-1,3.7.3.3,2.4,1.6,2.2,1.2-.7,2.8.1,1.8.4,3.4,1.5,5.6,1,7.7,2.9,2.3,2.4,4.1,2a5.34,5.34,0,0,1,4.6,1.2c.6.8.9,1.5,3.7,1.6s5.1-1,5.8.6-.3.7,2.3,1.6,3.2-.4,4.3,1.1,2.1-.2,3.6,1.7,3.2-.4,3.5,1.1,1.7,2.9-1.1,3.1-5.8-.8-8.4-1.3a16.38,16.38,0,0,0-4.5-.5,11,11,0,0,1-6.2-1.8c-.5-.4,1.2.4-3.3.1s-3.9-.8-7.6-1.8-3.3-.7-7.8-1.2-4.3-1.1-8.1-1.7a45.33,45.33,0,0,0-8-.9c-4.5-.3-5.1-1.2-6.9-1.5s-1.9-1.2-3.6-.6-12.1-1.7-14.5-2.3-7.1-.6-7.6-1.8-2.7.1-4.2-.1l-6-.8s3.7,1.3,4.3,2.5a3.06,3.06,0,0,0,3.6,1.6,8.3,8.3,0,0,1,6.4.9c2.4,1.5,3.5,1.1,5.6,3.1s2.5,1.6,3.7,4.2,1.3,2,1.5,4.6.2,3.7.2,3.7-.9-.2,0,1.4,3,4.4.5,3.6a19.68,19.68,0,0,1-4.1-2s.1,3.8-.8,3.8-1.9-.6-2.8-2.3-2.3.6-2.3.6a2.46,2.46,0,0,1-1.9-2.1,15.77,15.77,0,0,0-1.1-3.7,24.31,24.31,0,0,0-1.5-3.3s-4.2,1.9-6.1,2.1-3.3,1.6-6.1,2-5.4.3-6,0,.9,1.6-3.1,1.2-10.6-1-12.5-5.4c-.2-1.3-4.7-3.8-6.2-8.7.1-.3-1-3.5-1.4-5a25.36,25.36,0,0,1-.8-3.8s-6.3,4.3-10.3,2.5-5.1-2.7-6.1-5.1-2.1-3.6-2-6.1,0-4.3-.5-5.1-.7-.9-2-3.1-2.1-6.1-3.6-6.9-.4-.9-4.1-.9-5,.5-8.5-.9-5.8-1.4-8.1-4.7-4.6-4.8-5.8-6.8a16.07,16.07,0,0,0-3-4.1c-.4-.2-1.1-.1-3.2-.5a18.59,18.59,0,0,1-5.5-2.3c-1.4-.9-4.8-2.8-6.4-3.1s-2-1.1-3.6-.8-4.6-.4-6.7-1-1.8.4-4.2.5a14.37,14.37,0,0,1-4.1-.6,22.37,22.37,0,0,0-4.1.5,7.91,7.91,0,0,1-4.4.1,19.51,19.51,0,0,1-4.2-.9c-1.6-.5-2.6-.5-2.3-1.8s-.5-1.4-1.6-1.9-1.7-.2-2.3-2.4-1.8-2.6.1-3.3S78.8,460.1,78.8,460.1Z" transform="translate(-24.3 -14.14)"/><path class="cls-6" d="M79.7,458.7a.62.62,0,0,0,.4,1,1.31,1.31,0,0,0,1.2-.3,5.57,5.57,0,0,1,2.2-1.3,3.4,3.4,0,0,1,1,.1,11.92,11.92,0,0,1,2,.8" transform="translate(-24.3 -14.14)"/><path class="cls-6" d="M81.8,460.9a1.49,1.49,0,0,0,1.5.7,1.94,1.94,0,0,0,1.4-.9.66.66,0,0,0-.9-.3" transform="translate(-24.3 -14.14)"/><path class="cls-6" d="M76.1,467.7c.6.2,1.1-.1,1.7-.4a9.38,9.38,0,0,1,6.6-.3c0,.4-.4.7-.8.8a4.82,4.82,0,0,1-1.2,0,5.61,5.61,0,0,0-3.1.9" transform="translate(-24.3 -14.14)"/><path class="cls-6" d="M203.4,485.1a7.06,7.06,0,0,1,3,4.2c.5,1.8.2,4.3.1,6.2-.1,1.6-1.3,3.4-1.9.9-.5-1.9-.5-4-2.3-5.5a3.1,3.1,0,0,0,1.3.6,4.25,4.25,0,0,0-1.1-.2" transform="translate(-24.3 -14.14)"/><path class="cls-6" d="M136.3,466.4a9.32,9.32,0,0,0,3.3,7.7,18.57,18.57,0,0,0,7.7,3.8,41.16,41.16,0,0,0,7.8,1.4,2.49,2.49,0,0,0,1.7-.3,7.27,7.27,0,0,0,.8-.9c1.1-1.2,3-.8,4.5-.3a69.46,69.46,0,0,0,11.9,2.3,12,12,0,0,1,2,.3,7.48,7.48,0,0,1,2.4,1.5c3.2,2.6,6.2,5.7,10.1,6.9,1.9.6,4.2.8,5.6,2.1,1.6,1.5,1.8,3.8,2.3,6s1.7,4.5,3.9,4.7c1.5-2.2-1.2-5.5.1-7.9a6.36,6.36,0,0,1,2.9,5.2,1.64,1.64,0,0,0,.8-2" transform="translate(-24.3 -14.14)"/><path class="cls-6" d="M148.8,457.2a12,12,0,0,1,9.6,2.9,33.07,33.07,0,0,0,3.3,3.2c2.3,1.6,5.4,1.6,8.1,2.3a25.8,25.8,0,0,1,7,3.1,27.41,27.41,0,0,1,4.6,2.9c.8.7,1.6,1.5,2.5,2.2,2.2,1.7,5,2.4,7.2,4.2s3.6,4.4,6.2,5.3c2,.7,4.8.4,5.9,2.3" transform="translate(-24.3 -14.14)"/><path class="cls-6" d="M134.5,453.5c6.8,1.5,14,.3,20.9,1.1,2.2.3,4.4.8,6.6,1.3a70.11,70.11,0,0,1,12,3.9,46.08,46.08,0,0,1,12.2,7.8" transform="translate(-24.3 -14.14)"/><path class="cls-6" d="M188.5,468.1c4.4,2.1,6.6,7,9.4,10.9a6.47,6.47,0,0,0,.8.9c.3.2.6.3.9.5a14.67,14.67,0,0,1,6.6,6.2" transform="translate(-24.3 -14.14)"/><path class="cls-6" d="M151.3,495.3a8,8,0,0,0,4.6-5.1" transform="translate(-24.3 -14.14)"/><path class="cls-6" d="M152.5,491.7a13.49,13.49,0,0,1-3.5,2.8,2.15,2.15,0,0,1-1.9.2" transform="translate(-24.3 -14.14)"/><path class="cls-6" d="M147.3,492.9a4.18,4.18,0,0,1-2.3,2.4" transform="translate(-24.3 -14.14)"/><path class="cls-6" d="M161.4,507.1c2.4,1.5,3.7,4.3,6,6a13.37,13.37,0,0,0,5.5,1.9c1.6.3,3.2.5,4.7.7" transform="translate(-24.3 -14.14)"/><path class="cls-6" d="M170.6,517c1.2.3,2.4.5,3.6.7.5.1,1.3.1,1.4-.5" transform="translate(-24.3 -14.14)"/><path class="cls-6" d="M174.7,516.5a4.55,4.55,0,0,0,3,.6" transform="translate(-24.3 -14.14)"/><path class="cls-6" d="M171.6,519.2a8.14,8.14,0,0,0,4.1-.1" transform="translate(-24.3 -14.14)"/><path class="cls-6" d="M173.1,521c1-.3,2-.5,3-.8" transform="translate(-24.3 -14.14)"/><path class="cls-6" d="M181.7,493.4c-2.5,4.8-2.5,10.4-2.5,15.8,0,3.4,0,6.8.1,10.1,0,.3.1.6.3.6s.2-.5,0-.3" transform="translate(-24.3 -14.14)"/><path class="cls-6" d="M207.2,503.6c1.8,3.6-.3,7.7.1,11.5.2,1.7,1,3.4,1.2,5.1.3,2.1-.8,3.7-2.2,5.1s-3,3.1-5,3.4" transform="translate(-24.3 -14.14)"/><path class="cls-6" d="M207.6,517.5a7,7,0,0,1-5.2,5.6" transform="translate(-24.3 -14.14)"/><path class="cls-6" d="M208.2,522.5a30.23,30.23,0,0,1-.8,9,8.8,8.8,0,0,1-1,2.7,11.78,11.78,0,0,1-2.6,2.4" transform="translate(-24.3 -14.14)"/><path class="cls-6" d="M188.7,538.9a7.35,7.35,0,0,0,5.1-1.9,13.6,13.6,0,0,0,3.2-4.6" transform="translate(-24.3 -14.14)"/><path class="cls-6" d="M192.8,538.3a6.86,6.86,0,0,0,3.6-1.8,13.67,13.67,0,0,0,2.5-3.3" transform="translate(-24.3 -14.14)"/><path class="cls-6" d="M206.8,540.9c3.4-2.6,2.1-5.6,2.5-9.1" transform="translate(-24.3 -14.14)"/><path class="cls-6" d="M208,534.9a9,9,0,0,1-5.1,6.9" transform="translate(-24.3 -14.14)"/><path class="cls-6" d="M209.9,521a2.54,2.54,0,0,0,1.9-.2,3.76,3.76,0,0,0,1.4-1.4,15.12,15.12,0,0,0,2.8-10.5" transform="translate(-24.3 -14.14)"/><path class="cls-6" d="M226.8,505a17.12,17.12,0,0,1-4.2,12.6" transform="translate(-24.3 -14.14)"/><path class="cls-6" d="M233.2,508.4c.2-.1.4.2.4.4a12,12,0,0,1-2.4,10" transform="translate(-24.3 -14.14)"/><path class="cls-6" d="M241.6,511.3a13.27,13.27,0,0,1-1.4,11.3" transform="translate(-24.3 -14.14)"/><path class="cls-6" d="M247.8,515.6c.2-.2.4.1.5.4a12.16,12.16,0,0,1-1.5,9.3" transform="translate(-24.3 -14.14)"/><path class="cls-6" d="M255,517.3a10.13,10.13,0,0,1-1.6,8.6" transform="translate(-24.3 -14.14)"/><path class="cls-6" d="M261.2,519.6a7.85,7.85,0,0,1-.2,7.3" transform="translate(-24.3 -14.14)"/><path class="cls-6" d="M269.2,521.8a4.08,4.08,0,0,0,.1,1.9A7.91,7.91,0,0,1,268,530" transform="translate(-24.3 -14.14)"/><path class="cls-6" d="M275.9,524.7a11.36,11.36,0,0,1,0,4.5,3.59,3.59,0,0,1-1.7,2.7" transform="translate(-24.3 -14.14)"/><path class="cls-6" d="M283,526.7a6,6,0,0,1-1.4,6.4" transform="translate(-24.3 -14.14)"/><path class="cls-6" d="M290.1,528.5c.1-.1-.2-.2-.2-.1s0,.2,0,.4a5.31,5.31,0,0,1-1,5.4" transform="translate(-24.3 -14.14)"/><path class="cls-6" d="M296.2,531.1a3.5,3.5,0,0,1-.9,4.2" transform="translate(-24.3 -14.14)"/><path class="cls-6" d="M301.3,532.9a1.65,1.65,0,0,1,.8,1.5,2.91,2.91,0,0,1-1.4,2.4" transform="translate(-24.3 -14.14)"/><path class="cls-6" d="M209.7,496.9c-.8,1.9-.4,4-.2,6a19,19,0,0,1-1.4,9.1" transform="translate(-24.3 -14.14)"/><path class="cls-6" d="M211.9,500.8c-.8,1.7-.4,3.7-.3,5.6a14.78,14.78,0,0,1-2.4,8.6" transform="translate(-24.3 -14.14)"/><path class="cls-6" d="M203.3,488.6a5.8,5.8,0,0,1,2.9,5" transform="translate(-24.3 -14.14)"/><path class="cls-6" d="M94.2,465.6a5,5,0,0,0,5.1,3.9" transform="translate(-24.3 -14.14)"/><path class="cls-6" d="M97.9,465.7a10.11,10.11,0,0,0,5,3.9" transform="translate(-24.3 -14.14)"/><path class="cls-6" d="M113.7,469.2a7.32,7.32,0,0,0,4.5,3.2" transform="translate(-24.3 -14.14)"/><path class="cls-6" d="M121,472.4a5.22,5.22,0,0,0,2.7,3.6" transform="translate(-24.3 -14.14)"/><path class="cls-6" d="M125,472.9a23.77,23.77,0,0,0,3.1,8" transform="translate(-24.3 -14.14)"/><path class="cls-6" d="M131,481.1a14.25,14.25,0,0,0,5.3,6.8" transform="translate(-24.3 -14.14)"/></g><path class="cls-7" d="M195.7,40.8l-1.8-.9A15.67,15.67,0,0,0,188.6,56a3.77,3.77,0,0,0-4.5.3,9,9,0,0,0-2.6,4c-1.4,3.5-2.1,8.1.7,10.7a24.33,24.33,0,0,1,2.5,2c2.2,2.4,1.1,6.2,1.4,9.4.5,5.7,6.7,10.2,12.3,9-1.8,2.1-1,5.4,1,7.4s4.7,2.7,7.3,3.5" transform="translate(-24.3 -14.14)"/><path class="cls-7" d="M195.7,44.3a10.09,10.09,0,0,1,13.5-9.7c1.6-6.1,8.2-9.6,14.4-11,3.9-.9,8.1-1.2,11.9.1s7.1,4.5,7.7,8.5" transform="translate(-24.3 -14.14)"/><path class="cls-7" d="M238.4,34.5a11.81,11.81,0,0,1,12.7-4.4,7.57,7.57,0,0,1,2.4-6.8,12.91,12.91,0,0,1,6.8-3.1,18.32,18.32,0,0,1,11.1,1.1,12.72,12.72,0,0,1,7,8.5c.1.7.2,1.5.3,2.2" transform="translate(-24.3 -14.14)"/><path class="cls-7" d="M238.9,25.2c2.2-4.1,9.3-5.1,13.2-1.7" transform="translate(-24.3 -14.14)"/><path class="cls-8" d="M266.6,44.3a11.62,11.62,0,0,1,20.7-8.7c.2.3.5.7.9.6s.2-.9-.1-.6" transform="translate(-24.3 -14.14)"/><path class="cls-8" d="M259.3,33.2a7.45,7.45,0,0,1,6.1-3.3,7.68,7.68,0,0,1,6.2,3.2.43.43,0,0,0,.1-.7" transform="translate(-24.3 -14.14)"/><path class="cls-7" d="M277.6,25.7c4.4-4.7,12.7-5,17.3-.5,4.7-5.9,15.5-5,19.2,1.6A22.6,22.6,0,0,1,335,20.2c5.2,1.1,10.5,5.7,9.2,10.8,7-1,14.4,4.2,15.8,11.1,3.8,0,7,3.9,6.5,7.6A15.06,15.06,0,0,1,373.2,75" transform="translate(-24.3 -14.14)"/><path class="cls-8" d="M283.1,41a25.61,25.61,0,0,1,34.6-2.5" transform="translate(-24.3 -14.14)"/><path class="cls-8" d="M291.8,29.1c-.6,0-.4-1,.1-1.4a11.27,11.27,0,0,1,12.4-1.4" transform="translate(-24.3 -14.14)"/><path class="cls-8" d="M309.4,48.8a23,23,0,0,1,12.8-13.5c4.7-1.9,10.4-2.1,14.7.6s6.7,8.6,4.4,13.2c-.1-.4-.1-.8-.2-1.2" transform="translate(-24.3 -14.14)"/><path class="cls-8" d="M341.1,41.4a9.38,9.38,0,0,1,8.7,1.5,9.62,9.62,0,0,1,3.6,8,5.35,5.35,0,0,1,6.4,2.3,10.38,10.38,0,0,1,1.3,7.1" transform="translate(-24.3 -14.14)"/><path class="cls-7" d="M371.1,69.1a23.59,23.59,0,0,1,4.1,9.8,10.52,10.52,0,0,1-.9,7,7.2,7.2,0,0,1-5.4,3.5,7.34,7.34,0,0,1-6-2.5,7.75,7.75,0,0,1-6.9,6.5c-3.4.2-6.8-2.9-6.6-6.3" transform="translate(-24.3 -14.14)"/><path class="cls-8" d="M199.4,49.4a12.48,12.48,0,0,0-.1,12,10.38,10.38,0,0,0-4.9,4.8,5.75,5.75,0,0,0,.9,6.5c1.9,2,5.1,1.9,7.9,1.7a13.72,13.72,0,0,0,10.7,12.2c1.7.3,3.7.3,5.1-.9" transform="translate(-24.3 -14.14)"/><path class="cls-8" d="M232.7,40.5a10.11,10.11,0,0,0-1.8,15.4c-2,1.4-4.2,3.1-4.9,5.5s.6,5.6,3.1,5.7a9.18,9.18,0,0,0,5.3,7.4c2,.9,4.3,1,6.3,2.1s3.5,3.5,2.4,5.4" transform="translate(-24.3 -14.14)"/><path class="cls-8" d="M302.3,81.6a16.26,16.26,0,0,1,3-3.4,7.93,7.93,0,0,1,8-.9c2.6,1.2,4.7,3.8,7.5,3.6,3.1-.2,4.8-3.8,5.2-6.9,3.6.3,7,2.6,10.5,1.9a10.05,10.05,0,0,0,4.4-2.4,14,14,0,0,0,4.9-7.3c.6-2.9-.4-6.3-3-7.8s-6.5-.1-7.1,2.8a6.58,6.58,0,0,0-12-4.2" transform="translate(-24.3 -14.14)"/><path class="cls-8" d="M345.9,67c1.9,2.3,3.8,4.8,4.5,7.7s-.3,6.5-3,7.8" transform="translate(-24.3 -14.14)"/><path class="cls-8" d="M271.2,45.9c.2-.7-.9-1-1.6-.8-2.8.5-5.7,1.1-7.9,2.7a9.92,9.92,0,0,0-4,8.6c-1.5,0-2.9-.9-4.4-.9a5.38,5.38,0,0,0-4.1,2.5,10.51,10.51,0,0,0,.4,12.4,11.63,11.63,0,0,0,12,3.8c2-.6,4-1.8,4.7-3.8s0-4.4-.7-6.4" transform="translate(-24.3 -14.14)"/><path class="cls-7" d="M267.2,222.6a6.49,6.49,0,0,0-5.6-5.9,6.59,6.59,0,0,0-6.8,4.6c-.4-4.5-5.3-8-9.6-6.9-2.6-2.1-6-3.7-9.3-3s-6.2,4-5.4,7.2c.9.6,1.7,1.1,2.6,1.7-4.2.1-7.7,4.2-7.5,8.4s3.8,7.8,7.9,8.5a9.76,9.76,0,0,0-5,18.8,16.28,16.28,0,0,0,4.4.8c1.9.2,4,.3,5.6-.8s2.1-3.8.5-4.9" transform="translate(-24.3 -14.14)"/><path class="cls-8" d="M244.9,213.6a8.25,8.25,0,0,1,10.9-3.2,6.63,6.63,0,0,1,3.5,6.5c-.4-.3-.9-.6-1.3-.9" transform="translate(-24.3 -14.14)"/><path class="cls-8" d="M265.5,223.9c-.4,0-.3-.7-.1-1,1.1-1.3,2.7-2.5,4.4-2.3s3.1,2.2,2.3,3.7a10.32,10.32,0,0,0,5.2-.5c-2-3.7.5-8.6,4.5-10.1a8,8,0,0,1,7.5.9,5.71,5.71,0,0,1,1.5,7.1c2.8-1.3,6.5-1.4,8.9.6s2.9,6.2.5,8.2" transform="translate(-24.3 -14.14)"/><path class="cls-7" d="M295.1,231.2a6.79,6.79,0,0,1,11.2,3.1,10.45,10.45,0,0,1,11.5-2.2,10,10,0,0,1-2.2,18.8,8.21,8.21,0,0,1,4.8,7.8,8.12,8.12,0,0,1-6,7,7.15,7.15,0,0,1-.8,10.8c-2.6,1.8-6.2,1.5-9.2.4-4.7-1.8-8.6-6.4-8.1-11.4a6.09,6.09,0,0,1,3.6-5.2c2.1-.8,4.9.6,5.1,2.8" transform="translate(-24.3 -14.14)"/><path class="cls-7" d="M237.1,257.9c-1.9,0-2.8,2.4-2.6,4.3.6,5.1,5.9,8.1,10.8,9.4,3,.8,6.2.9,7.3-1.6a17.33,17.33,0,0,1,1.7-2.1c.9-1.4,1.9-2.8,2.8-4.3" transform="translate(-24.3 -14.14)"/><path class="cls-8" d="M249.8,259.2a22.71,22.71,0,0,0,13.8,4.4,8.32,8.32,0,0,0,5.3-1.6,14.56,14.56,0,0,0,8,6.2,9.63,9.63,0,0,0,5.3.4,7.7,7.7,0,0,0,5.7-6.4,7.48,7.48,0,0,0-4-7.5" transform="translate(-24.3 -14.14)"/><path class="cls-8" d="M248.3,249.7c-.3.8-1.4,0-1.8-.7a13.24,13.24,0,0,1-1.8-5.5,7.75,7.75,0,0,1,3.6-7,8,8,0,0,1,7.9-.1,1.84,1.84,0,0,1-1.6-.5c-1-2.1.9-4.4,2.8-5.5a12.61,12.61,0,0,1,15.6,3.3c1.5,2,2.4,4.7,1.3,6.9" transform="translate(-24.3 -14.14)"/><path class="cls-8" d="M232.6,231.5v-1.3a12.11,12.11,0,0,1,9.8-2.7,11.8,11.8,0,0,1,8.3,5.9c.3.5.5,1.2,0,1.6" transform="translate(-24.3 -14.14)"/><path class="cls-8" d="M275.5,249.4a10.11,10.11,0,0,1,8.7-6.5,9.93,9.93,0,0,1,9.2,5.8c-1-2.5,1.2-5.6,3.8-6s5.4,1.1,7,3.4a7.58,7.58,0,0,1,.8,7.8c-1.3,2.4-4.8,3.6-7,2" transform="translate(-24.3 -14.14)"/><path class="cls-7" d="M240,272.1a7.45,7.45,0,0,0,1.4,8.9c.2.2.4.3.4.6.1.5-.5.8-1,.9a20.26,20.26,0,0,0-6.3,2.5c-1.8,1.3-3.2,3.6-2.7,5.8s3.1,3.9,5.1,2.7a11.63,11.63,0,0,0-5.5,1.2c-1.7,1-2.8,2.9-2.2,4.7a4.07,4.07,0,0,0,3.7,2.5,12.16,12.16,0,0,0,4.6-.9c-.2,1.9-.4,4.1.8,5.6a6.55,6.55,0,0,0,3.2,1.9,10.49,10.49,0,0,0,7-.4,6.62,6.62,0,0,0,3.9-5.6,5.61,5.61,0,0,0-8-5.3,6.66,6.66,0,0,0-.4,3.1c.3,1,1.4,1.9,2.4,1.5v-2.3" transform="translate(-24.3 -14.14)"/><path class="cls-7" d="M313.2,276.4c-.6,1.5.7,3.1,2.2,3.6a35.45,35.45,0,0,0,4.7.7c4.4,1,6.9,6.9,4.5,10.7-2.1,3.4-7,5.3-7.2,9.3,3.1-.6,6,2.7,5.7,5.9s-3,5.7-6,6.7-6.2,1-9.4.9c2.1,1,4.3,2,5.6,3.9s1.5,4.8-.4,6.3a5.58,5.58,0,0,1-.4,10.5c1,1.6-1.5,4.3.1,5.4a3.26,3.26,0,0,0,1.4.4c2.9.6,3.4,5.1,1.4,7.2s-5.3,2.6-8.3,2.8c1.8,2-.1,5.9-2.8,5.6,2.1,2.5-.6,7.2-3.8,6.6.1,1,.1,2.1.2,3.1a6.48,6.48,0,0,1,7,10.9,6.06,6.06,0,0,1,6.6,3.6,6.72,6.72,0,0,1-1.9,7.4c2-1.2,4.7-.4,6.3,1.2a12.92,12.92,0,0,1,2.8,6.3" transform="translate(-24.3 -14.14)"/><path class="cls-7" d="M239.8,392.9a5.24,5.24,0,0,1,7.1-7.1v-4.9a3.69,3.69,0,0,1-4.1-2.5,5.7,5.7,0,0,1,.9-5,8.59,8.59,0,0,1-8.1-7.8,8.71,8.71,0,0,1,7.2-8.7c.8-.1,1.8-.4,1.7-1.1a1,1,0,0,0-.5-.8c-1.9-1.9-4.5-3-6.8-4.5s-4.4-3.8-4.4-6.5,3.3-5.2,5.6-3.6a6.28,6.28,0,0,1,2.7-3.1,5.55,5.55,0,0,1-5.4-4.1,5.71,5.71,0,0,1,2.6-6.2c1.4-.7,3.3-1.3,3.3-2.9,0-1-1-1.8-1.7-2.5-3.1-3.1-1.9-9.2,2-11" transform="translate(-24.3 -14.14)"/><path class="cls-8" d="M264.7,215.9c.3-.2.1.6-.2.4s-.1-.7,0-1c.9-1.7,2-3.6,3.8-4.4s4.4,0,4.6,2a10.91,10.91,0,0,1,14.8-11.8c3.2,1.3,5.9,4.8,4.9,8.1" transform="translate(-24.3 -14.14)"/><path class="cls-7" d="M284.6,208.3a36.31,36.31,0,0,1,5.7.3c1.9.4,3.7,1.6,4.1,3.5,2-.9,4.5.5,5.5,2.5s.8,4.4.6,6.6a.55.55,0,0,1-.3.5c-.2.1-.3-.3-.1-.3" transform="translate(-24.3 -14.14)"/><path class="cls-7" d="M269.9,210.7a8.43,8.43,0,0,1-1.4-7.5c.5-1.5,1.3-3.4.2-4.5-.7-.7-1.8-.7-2.9-.8-6.1-.6-10.5-8.1-8-13.7.5-1.2,1.3-2.3,1.2-3.6-.2-3.2-5-3.7-6.5-6.5-1.1-2.1-.1-4.5.4-6.8a14.59,14.59,0,0,0-1.4-9.4c-4.5.8-8.6-5-6.3-8.9,1.4-2.4,4.5-5.2,2.6-7.2h-3.9c-1.6-1.6-1-4.4-2.2-6.3-1.9-2.7-6-1.5-9.4-1.7a9.9,9.9,0,0,1-8.9-10.3,8.9,8.9,0,0,0-8.8-2c.4-1.7-1.7-2.6-3.3-3.3a10.35,10.35,0,0,1,5-19.8v5.8c-.9.3-1.8.7-2.6,1" transform="translate(-24.3 -14.14)"/><path class="cls-7" d="M291.5,209.7c-.8-.9.6-1.9,1.7-2.4a8.17,8.17,0,0,0,3.9-9.9c-.8-2-2.4-4-1.5-5.9.4-.9,1.4-1.5,2-2.3a8.84,8.84,0,0,0,1.5-3.9c1.4-6.5,2.8-13.5.4-19.8-.7-1.9-1.8-3.9-.9-5.7a11.8,11.8,0,0,1,1.3-1.8c1-1.6,1-3.6,1.5-5.5s2.3-3.6,4.1-2.9a7.63,7.63,0,0,0,8.1,5c-.1-1.8-.1-3.5-.2-5.3,1.3-1.4,3.4.3,4.9,1.5A8.17,8.17,0,0,0,329,138.5a6.34,6.34,0,0,0,7.7-1.8,6.08,6.08,0,0,0-.8-7.8" transform="translate(-24.3 -14.14)"/><path class="cls-7" d="M308.7,102.6c-2.8,1.8-4.4,5.6-3.1,8.7s5.6,4.6,8.3,2.6c-2.1,3.5-.3,8.4,2.9,10.9s7.5,3.2,11.6,3.4c3.9.2,7.9,0,11.5-1.6s6.6-4.9,7-8.8c2.9,2.1,7,.8,9.9-1.3a21.56,21.56,0,0,0,6.9-24.4c-.4-1.1-1.8-2.3-2.6-1.5" transform="translate(-24.3 -14.14)"/><path class="cls-8" d="M327.8,109.6c1.4,1.8,3.7,2.5,5.9,3.1,4,1.1,8.2,1.9,12.2,1s7.8-4,8.5-8.1" transform="translate(-24.3 -14.14)"/><path class="cls-8" d="M330.4,86.1c.1,5.6-5.3,9.8-10.7,11.4-2.6.8-5.5,1.2-8.1.2s-4.6-3.8-3.9-6.4A16.32,16.32,0,0,1,287,89.9c-2.2-2.3-3.8-5.4-3.4-8.6s3.3-6.1,6.5-5.8" transform="translate(-24.3 -14.14)"/><path class="cls-8" d="M232.1,95.8c-1.8,3.8-.1,8.6,3.1,11.4s7.4,4,11.5,4.8a20.15,20.15,0,0,0,8.1.2c2.6-.7,5.1-2.5,5.9-5.1a9.44,9.44,0,0,0,1.4,9,15.37,15.37,0,0,0,7.7,5.3c8.1,2.8,18.1.6,23.1-6.4a13.72,13.72,0,0,0,2.5-9.6,9.42,9.42,0,0,0-6.2-7.4" transform="translate(-24.3 -14.14)"/><path class="cls-8" d="M291.1,117.5c2.3,3.2,6.6,4.6,10.5,4.2a23.09,23.09,0,0,0,10.8-4.6" transform="translate(-24.3 -14.14)"/><path class="cls-8" d="M219.8,93.2c.5-.7,1.5.2,2,.9,1.3,1.8,4,2.3,6.2,1.8s4.2-1.7,6.3-2.6,4.5-1.5,6.6-.6c3,1.3,4.1,4.9,6.5,7.1,2.8,2.6,7.1,2.9,10.8,2.1a12.57,12.57,0,0,0,6.4-3.2,6.68,6.68,0,0,0,1.7-6.7c-.8-2.3-3.6-3.8-5.8-2.8" transform="translate(-24.3 -14.14)"/><path class="cls-8" d="M227.6,115.1a16,16,0,0,0,6.3,11.1,12.11,12.11,0,0,0,12.4,1.2c.8-.4,1.7-.9,2.5-.5a4.62,4.62,0,0,1,.7.7,12,12,0,0,0,11.7,4.1,12.18,12.18,0,0,0,9-8.4" transform="translate(-24.3 -14.14)"/><path class="cls-8" d="M274.1,146.1a11.44,11.44,0,0,0,5,5.2,9.89,9.89,0,0,0,7.7.9,7,7,0,0,0,4.7-5.8c4.4,3.9,12,3.3,15.8-1.2,1.3-1.5,2.2-3.6,1.6-5.5s-3.1-3.2-4.7-2" transform="translate(-24.3 -14.14)"/><path class="cls-8" d="M257.1,139c-.5.2-.1,1,.4,1.3a25,25,0,0,0,20.1,3A24.68,24.68,0,0,0,293,130.1a13.18,13.18,0,0,0,14.8-1.6" transform="translate(-24.3 -14.14)"/><path class="cls-8" d="M312.9,282.4c2.5,1.9,2,6.3-.7,7.8s-6.5.3-8-2.4c-1.7.7-1.1,3.2-1.9,4.8-1,2.1-4.2,2.2-5.9.7s-2.2-4-2.2-6.3c-.9,0-1.7.1-2.6.1a5.32,5.32,0,0,1,.1,3.3c-.4,1-1.6,1.9-2.6,1.3a3.11,3.11,0,0,1-1.2-1.7c-.7-1.9-1.5-3.9-2.2-5.8a11.29,11.29,0,0,1-4.7,1.2,4.39,4.39,0,0,1-3.9-2.4,5,5,0,0,1-10-.5c0-1.5,1-3.1,2.4-3.1" transform="translate(-24.3 -14.14)"/><path class="cls-8" d="M291.3,305.2a5.28,5.28,0,0,1,5.4,2.3,5.48,5.48,0,0,1-.1,5.9,13.9,13.9,0,0,1-5.3-1.4v1.9a6,6,0,0,1,4.9.8,4.42,4.42,0,0,1,1.8,4.5,3.29,3.29,0,0,1-4,2.2,10.05,10.05,0,0,1-2.4-1.8c-.8-.6-2-1-2.8-.3-1.2.9-.6,3.4-2.1,3.9a4.05,4.05,0,0,1-1.1,0c-2.7-.5-5.7-1.2-7.1-3.6a2.41,2.41,0,0,0-.6-.8c-.6-.5-1.5,0-2,.6a12.38,12.38,0,0,1-1.4,1.8,3.22,3.22,0,0,1-2.1.6,9.71,9.71,0,0,1-9.4-9.3c0-1.7.4-3.7-.8-5a7.62,7.62,0,0,0-2,.6c-2,.4-3.3-2.3-3.1-4.3a7.83,7.83,0,0,1,8-6.9c3.9.3,7,4.7,5.8,8.4-.9.5-1.7,1-2.6,1.5a9.59,9.59,0,0,0-1.3-5.2" transform="translate(-24.3 -14.14)"/><path class="cls-8" d="M262.9,311.7c-2.8-.5-5.1,2.3-6.1,5a8.17,8.17,0,0,0-.5,3.8,3.33,3.33,0,0,0,2.4,2.8,6.53,6.53,0,0,1,2,.5c.7.6.5,1.7.1,2.5a5.09,5.09,0,0,0-.9,2.6,3.14,3.14,0,0,0,1.3,1.9c2,1.8,4.8,3.2,7.4,2.4a5,5,0,0,0,3.2-5.6" transform="translate(-24.3 -14.14)"/><path class="cls-8" d="M248.3,380.9c-.5-1.8-.9-3.8-.2-5.5s3.1-2.8,4.5-1.6a8.93,8.93,0,0,1,1.7-5.7,7.86,7.86,0,0,1,1.4-15c2-.4,4.6.5,4.6,2.6a17.73,17.73,0,0,1-.8-6,5.21,5.21,0,0,1,3.5-4.5c2.5-.6,5,1.4,5.9,3.8s.5,5,.1,7.6a6.61,6.61,0,0,1,4.1,1,5.58,5.58,0,0,1,7.4-4c2.9,1.4,3.9,5.8,1.7,8.2,1.8-1.7,5.2,1.1,4,3.2,2.3-3,7.7-.8,8.6,2.8s-1.6,7.4-4.6,9.7a8.9,8.9,0,0,1,9.8,2,8.63,8.63,0,0,1,1.2,9.9,6.3,6.3,0,0,1,10.7,5.4" transform="translate(-24.3 -14.14)"/><path class="cls-8" d="M273.8,375.3a1.87,1.87,0,0,1,.5-1.4c1.9-2.1,5.6-1.4,7.4.7s2.3,5.1,2.5,7.9a7.2,7.2,0,0,1,5.2-.4,4.21,4.21,0,0,1,2.7,4.1" transform="translate(-24.3 -14.14)"/><path class="cls-8" d="M277.2,353.3c-.4-2.4-.4-5,1-7s4.5-2.9,6.4-1.4c.9-.9.6-2.3,0-3.4a19.57,19.57,0,0,1-2-3,5.88,5.88,0,0,1-.2-3.7,8.16,8.16,0,0,1,7.8-5.8,8.61,8.61,0,0,1,7.9,5.8,9.16,9.16,0,0,1-2.6,9.5,5.59,5.59,0,0,1,4,5.1c.3,2.3-.5,4.6-1.3,6.7" transform="translate(-24.3 -14.14)"/><path class="cls-9" d="M195.1,87.1s-8.4-2.3-6.1-8.4,1.2-7.7-.8-11.1-1.9-5.4.8-8.4,10.4-3.8,11.5-3.5.8-8.8,5.4-8.1,8.8,7.7,7.7,11.1-1.5,11.9,2.3,13.8,6.7-5.6,14.1-2.4,8.9,13.2,8.9,14.7,7.3,7.7,13.1,5.4,1.9-9.2,8.1-9.6,9.2,5.4,9.2,8.4,3.1,6.9,3.1,9.6-1.2,10.7,3.8,9.6,6.5-4.3,12.7-4.2,8.3,5.2,5,9.4-2.2,5.2-.6,6.1,7.3-3.7,9.9-6,6.8,5.2,6,5.6,5.9-9.5,9.4-6.4,6.4,5.5,10.7-2,7.4-10.3,10-5.3,5.8,10-1.5,14.2-7.7,9.2-16.5,9.6-20.4-7.3-19.6-2.7-4.1,11.2-13.6,10.6-16-5.2-15.2-7.9-2.1,1.8-8.8,5.8-11.5,5-14.2,1.2-3.9-7.8-6.5-7.7-6.5,6.2-10.4,1.9-1.6-12.5-4.6-12.8-8.4,2-10.3.9-8.4,1.2-8.4-6.1-.8-12.2,1.4-13.1-5.8,2.8-8,1.5-2.6-6.1-2.6-7.7Z" transform="translate(-24.3 -14.14)"/><path class="cls-10" d="M260.4,146.2s0,7.3,9.2,10,13.1,3.5,15.7,1.5,4.6-3.1,7.7-1.9,5.5-3.1,6.1-5,5.5-3.3,6.3-4,4.8,5.8,7.9,2.4,7.7-9.9,2.7-7.6-7.7,5-10,2.7-5.8-8.4-9.2-5,0,2.7-6.1,5.8-8.4,4.2-12.3,3.8S260.4,146.2,260.4,146.2Z" transform="translate(-24.3 -14.14)"/><path class="cls-10" d="M229.7,228c3.5-5,9.7-4.9,9.7-.5s1.1,6.7,4.2,6.7,0-.4-.4,5,3.5,7.7,6.5,6.1,6.9-6.5,10-2.7,6.1,8.4.8,10-6.1-4.2-9.2-1.2-11.5-5.4-12.7-3.1-1.5,5-5.4,3.5-7.7-1.2-7.7-4.2,3.8-4.2,5.4-5,3.8-2.7,3.1-3.8-6.8-.8-6.1-4.8A16.64,16.64,0,0,1,229.7,228Z" transform="translate(-24.3 -14.14)"/><path class="cls-10" d="M243.6,271c9.2-1,8,1.1,10.9-3.1s3.5-6,6.6-4.3.3-4.8,9,.2,9,6.6,12.1,5,4.3-6.2,3.2-8.1-1.5-5.8-1.5-5.8c3.6,9.3,3.4,12.3,1.1,15.7s-3.5,4.2-7.3,5-9.6-1.5-11.5,3.5,0,9.6-4.2,10-5.8-3.1-8.1-.4-7.3,1.5-8.8,3.8-7.9,5.2-8.2,1.1,4.7-7.2,6.3-7.2,3.8-1.5,3.1-3.5-1.9-3.1-3.5-5.4-.6-7.1-.6-7.1Z" transform="translate(-24.3 -14.14)"/><path class="cls-10" d="M313.8,287.5c-2.3,7.3-17.6,9.5-18,10.7-2.9,7.7,2.7,8.4-3.5,9.6s-10.4,1.9-13.4-.8-1.5-2.3-5,1.2-12.5-.3-9.9,0,5.7,9.9,13.4,8.8a85.73,85.73,0,0,0,15.6-4.3s3.9-4.5,5.3,1.4,3.4-1.5,1.4,5.9-9.4-3.1-5.4,10.2-2.8,14.4-6.6,9.9-5-7.7-5.8-2.7,3.9,9.1,3.5,12.3-5.4,7.7-10.4,6.9-14.6-4.2-5-.8,13.8,5.4,14.6,11.5,3.4,8.6-.8,11.5-3.8,7.7-7.3,8.8-9.6,5-9.6,5,10,0,14.2-.8,10.7,0,14.6-.4,10,.9,11.9.3,6.2,2,7.3,2-4.2-3.1-4.6-6.9-3.5-11.5-6.1-11.5-2.3-.8-3.5-3.8-1.5-4.6-2.3-6.5-9.2.8-.8-6.5,7.3-11.5,10-11.5,2.8,4,6.5,0,3.5-6.9.4-8.1-6.5-.8-3.8-5,6.3-5.1,3.9-8.7-5.1-2.8-6.6-4.4-3.5-3.8-.8-6.9,3.1-1.9,5.8-1.5,1.4,2,6.5-1.5,4.8-8.5,2.2-9-5.6.1-6.4-1,1.9-.8,4.2-6.5,4.6-6.5,1.9-8.1S313.8,287.5,313.8,287.5Z" transform="translate(-24.3 -14.14)"/><rect class="cls-11" x="26.8" y="592.66" width="329.7" height="71.1"/><ellipse class="cls-12" cx="253.8" cy="387.06" rx="118" ry="75.2"/><rect class="cls-13" x="297.23" y="350.59" width="68.37" height="280.4"/><rect class="cls-11" x="26.8" y="6.87" width="128.3" height="137.79"/><g class="cls-14"><text class="cls-15" transform="translate(26.8 18.12)">Durante pruebas </text><text class="cls-15" transform="translate(26.8 36.12)">militares, bombas </text><text class="cls-15" transform="translate(26.8 54.12)">atómicas explotan </text><text class="cls-15" transform="translate(26.8 72.12)">sobre una isla en </text><text class="cls-15" transform="translate(26.8 90.12)">el Pacífico</text></g><text class="cls-16" transform="translate(9.6 18.18)">1</text><rect class="cls-11" x="26.8" y="295.53" width="153.13" height="71.83"/><g class="cls-14"><text class="cls-15" transform="translate(26.8 306.78)">Godzilla es un monstruo </text><text class="cls-15" transform="translate(26.8 324.78)">marino prehistórico </text><text class="cls-15" transform="translate(26.8 342.78)">despertado y empoderado</text><text class="cls-15" transform="translate(26.8 360.78)">por la radiación nuclear</text></g><text class="cls-16" transform="translate(9.6 306.83)">2</text><rect class="cls-11" x="26.8" y="592.69" width="329.72" height="71.12"/><g class="cls-14"><text class="cls-15" transform="translate(26.8 603.94)"><tspan xml:space="preserve">Godzilla es una alegoría que representa las  </tspan></text><text class="cls-15" transform="translate(26.8 621.94)"><tspan xml:space="preserve">relaciones entre Japón y Estados Unidos. Primero es   </tspan></text><text class="cls-15" transform="translate(26.8 639.94)"><tspan xml:space="preserve">enemigo de Japón, ataca y destruye sus ciudades,  </tspan></text><text class="cls-15" transform="translate(26.8 657.94)">luego es amigo y defensor del país</text></g><text class="cls-16" transform="translate(9.6 603.61)">3</text><ellipse class="cls-17" cx="253.82" cy="386.64" rx="117.99" ry="75.18"/></svg>